<?xml version="1.0" encoding="utf-8"?>
<!-- Generator: Adobe Illustrator 22.0.1, SVG Export Plug-In . SVG Version: 6.00 Build 0)  -->
<svg version="1.1" id="Layer_1" xmlns="http://www.w3.org/2000/svg" xmlns:xlink="http://www.w3.org/1999/xlink" x="0px" y="0px"
	 viewBox="0 0 517.8 518" style="enable-background:new 0 0 517.8 518;" xml:space="preserve">
<style type="text/css">
	.st0{fill:#3a32e9;}
</style>
<g>
	<path class="st0" d="M319.4,29.4c0.6,0.2,1.2,0.4,1.9,0.6c0.8,0.3,1.5,0.4,2.3,0.4c3.2,0,6.1-2,7.1-5.2c1.3-3.9-0.9-8.2-4.8-9.4
		c-0.7-0.2-1.3-0.4-2-0.6c-3.9-1.3-8.2,0.9-9.4,4.9C313.2,23.9,315.4,28.1,319.4,29.4L319.4,29.4z M319.4,29.4"/>
	<path class="st0" d="M294,22.8c0.6,0.1,1.3,0.3,1.9,0.4c0.5,0.1,1.1,0.2,1.6,0.2c3.5,0,6.6-2.4,7.3-5.9c0.9-4.1-1.7-8-5.8-8.9
		c-0.7-0.1-1.3-0.3-2-0.4c-4.1-0.8-8,1.8-8.9,5.8C287.3,18,289.9,21.9,294,22.8L294,22.8z M294,22.8"/>
	<path class="st0" d="M241.9,17.5c0.6,0,1.3,0,1.9,0h0.1c4.1,0,7.5-3.3,7.5-7.4c0-4.1-3.3-7.5-7.4-7.6c-0.7,0-1.4,0-2.1,0
		c-4.1,0-7.5,3.4-7.5,7.5C234.4,14.1,237.8,17.5,241.9,17.5L241.9,17.5z M241.9,17.5"/>
	<path class="st0" d="M268.1,18.8c0.6,0.1,1.3,0.1,1.9,0.2c0.3,0,0.5,0,0.8,0c3.8,0,7-2.9,7.4-6.7c0.4-4.1-2.5-7.8-6.6-8.3
		c-0.7-0.1-1.4-0.1-2-0.2c-4.1-0.4-7.8,2.6-8.2,6.7C261,14.7,264,18.4,268.1,18.8L268.1,18.8z M268.1,18.8"/>
	<path class="st0" d="M389.6,64.2c0.5,0.4,1.1,0.8,1.6,1.1c1.3,0.9,2.8,1.4,4.4,1.4c2.3,0,4.6-1.1,6.1-3.1c2.4-3.4,1.6-8.1-1.7-10.5
		c-0.6-0.4-1.1-0.8-1.7-1.2c-3.4-2.4-8.1-1.6-10.4,1.8C385.4,57.1,386.2,61.8,389.6,64.2L389.6,64.2z M389.6,64.2"/>
	<path class="st0" d="M343.9,38.6c0.6,0.3,1.2,0.5,1.8,0.8c1,0.4,2,0.6,3,0.6c2.9,0,5.6-1.7,6.9-4.5c1.7-3.8,0-8.2-3.8-9.9
		c-0.6-0.3-1.3-0.6-1.9-0.8c-3.8-1.6-8.2,0.1-9.9,3.9C338.4,32.5,340.1,36.9,343.9,38.6L343.9,38.6z M343.9,38.6"/>
	<path class="st0" d="M367.4,50.2c0.6,0.3,1.1,0.6,1.7,1c1.2,0.7,2.4,1,3.7,1c2.6,0,5.1-1.4,6.5-3.8c2.1-3.6,0.8-8.2-2.8-10.2
		c-0.6-0.3-1.2-0.7-1.8-1c-3.6-2-8.2-0.7-10.2,2.9C362.5,43.6,363.8,48.2,367.4,50.2L367.4,50.2z M367.4,50.2"/>
	<path class="st0" d="M430.5,99.9c1.5,1.6,3.5,2.4,5.5,2.4c1.8,0,3.7-0.7,5.1-2c3-2.8,3.2-7.6,0.4-10.6c-0.5-0.5-0.9-1-1.4-1.5
		c-2.8-3-7.6-3.2-10.6-0.3c-3,2.8-3.2,7.6-0.3,10.6C429.6,99,430,99.5,430.5,99.9L430.5,99.9z M430.5,99.9"/>
	<path class="st0" d="M473.5,163.1c0.3,0.6,0.6,1.2,0.8,1.7c1.3,2.7,4,4.3,6.8,4.3c1.1,0,2.2-0.2,3.2-0.7c3.7-1.8,5.3-6.2,3.6-10
		c-0.3-0.6-0.6-1.2-0.9-1.9c-1.8-3.7-6.3-5.3-10-3.5C473.3,154.9,471.7,159.4,473.5,163.1L473.5,163.1z M473.5,163.1"/>
	<path class="st0" d="M461,140.1c0.3,0.6,0.7,1.1,1,1.7c1.4,2.3,3.9,3.6,6.4,3.6c1.3,0,2.7-0.3,3.9-1.1c3.5-2.1,4.7-6.8,2.5-10.3
		c-0.4-0.6-0.7-1.2-1.1-1.7c-2.2-3.5-6.8-4.6-10.3-2.5C459.9,132,458.8,136.6,461,140.1L461,140.1z M461,140.1"/>
	<path class="st0" d="M500.8,219.8c4-1,6.5-5,5.5-9c-0.2-0.7-0.3-1.3-0.5-2c-1-4-5.1-6.5-9.1-5.5c-4,1-6.5,5.1-5.5,9.1c0.2,0.6,0.3,1.3,0.5,1.9
		c0.8,3.4,3.9,5.7,7.3,5.7C499.6,220,500.2,219.9,500.8,219.8L500.8,219.8z M500.8,219.8"/>
	<path class="st0" d="M505,246.5c4.1-0.6,7-4.3,6.4-8.4c-0.1-0.7-0.2-1.4-0.3-2c-0.6-4.1-4.4-7-8.5-6.4c-4.1,0.6-6.9,4.4-6.4,8.5
		c0.1,0.6,0.2,1.3,0.3,1.9c0.5,3.8,3.7,6.5,7.4,6.5C504.3,246.5,504.6,246.5,505,246.5L505,246.5z M505,246.5"/>
	<path class="st0" d="M493.9,193.7c3.9-1.4,6-5.7,4.6-9.6c-0.2-0.6-0.5-1.3-0.7-1.9c-1.4-3.9-5.7-5.9-9.6-4.5c-3.9,1.4-5.9,5.7-4.5,9.6
		c0.2,0.6,0.4,1.2,0.7,1.8c1.1,3.1,4,5,7.1,5C492.2,194.1,493.1,194,493.9,193.7L493.9,193.7z M493.9,193.7"/>
	<path class="st0" d="M513.6,263.6c-0.2-4.1-3.6-7.4-7.8-7.2c-4.1,0.2-7.4,3.7-7.2,7.8c0,0.6,0,1.3,0.1,1.9c0.1,4.1,3.5,7.3,7.5,7.3
		c0.1,0,0.2,0,0.2,0c4.1-0.1,7.4-3.6,7.3-7.7C513.7,265,513.6,264.3,513.6,263.6L513.6,263.6z M513.6,263.6"/>
	<path class="st0" d="M410.3,80.3c0.5,0.4,1,0.8,1.5,1.3c1.4,1.3,3.2,1.9,5,1.9c2.1,0,4.1-0.9,5.6-2.5c2.7-3.1,2.4-7.8-0.7-10.6
		c-0.5-0.5-1-0.9-1.6-1.4c-3.1-2.7-7.9-2.4-10.6,0.8C406.8,72.9,407.1,77.6,410.3,80.3L410.3,80.3z M410.3,80.3"/>
	<path class="st0" d="M447.3,120.1c1.5,2,3.7,3,6,3c1.6,0,3.2-0.5,4.5-1.5c3.3-2.5,4-7.2,1.5-10.5c-0.4-0.5-0.8-1.1-1.2-1.6
		c-2.5-3.3-7.2-3.9-10.5-1.4c-3.3,2.5-3.9,7.2-1.4,10.5C446.5,119,446.9,119.5,447.3,120.1L447.3,120.1z M447.3,120.1"/>
	<path class="st0" d="M241.9,215.9c-9,0-17.6,2-25.6,5.9c-3.7,1.8-5.3,6.3-3.5,10c1.8,3.7,6.3,5.3,10,3.5c6-2.9,12.4-4.4,19.1-4.4
		c24,0,43.6,19.5,43.6,43.6c0,24-19.5,43.6-43.6,43.6c-24,0-43.6-19.5-43.6-43.6c0-6.9,1.6-13.5,4.7-19.6c1.9-3.7,0.4-8.2-3.3-10.1
		c-3.7-1.9-8.2-0.4-10.1,3.3c-4.2,8.3-6.3,17.1-6.3,26.4c0,32.3,26.3,58.6,58.6,58.6c32.3,0,58.6-26.3,58.6-58.6
		C300.5,242.1,274.2,215.9,241.9,215.9L241.9,215.9z M241.9,215.9"/>
	<path class="st0" d="M234.4,196.4c0,4.1,3.4,7.5,7.5,7.5c38.9,0,70.5,31.6,70.5,70.5c0,4.1,3.4,7.5,7.5,7.5c4.1,0,7.5-3.4,7.5-7.5
		c0-47.2-38.4-85.5-85.5-85.5C237.8,188.9,234.4,192.2,234.4,196.4L234.4,196.4z M234.4,196.4"/>
	<path class="st0" d="M266.1,274.4c0-13.3-10.8-24.2-24.2-24.2c-13.3,0-24.2,10.8-24.2,24.2c0,13.3,10.8,24.2,24.2,24.2
		C255.2,298.6,266.1,287.8,266.1,274.4L266.1,274.4z M232.7,274.4c0-5.1,4.1-9.2,9.2-9.2c5.1,0,9.2,4.1,9.2,9.2
		c0,5.1-4.1,9.2-9.2,9.2C236.8,283.6,232.7,279.5,232.7,274.4L232.7,274.4z M232.7,274.4"/>
	<path class="st0" d="M241.9,34.4C109.5,34.4,1.8,142.1,1.8,274.4c0,132.4,107.7,240.1,240.1,240.1c51.1,0,99.9-15.9,141.2-46
		c3.3-2.4,4.1-7.1,1.6-10.5c-2.4-3.3-7.1-4.1-10.5-1.6c-38.7,28.2-84.4,43.1-132.3,43.1c-124.1,0-225.1-101-225.1-225.1
		c0-124.1,101-225.1,225.1-225.1C366,49.4,467,150.3,467,274.4c0,61.3-24.3,118.7-68.5,161.5c-3,2.9-3,7.6-0.2,10.6
		c2.9,3,7.6,3,10.6,0.2c22.8-22.2,40.8-48.1,53.4-77.2c13-30.1,19.6-62.1,19.6-95.1C482,142.1,374.3,34.4,241.9,34.4L241.9,34.4z
		 M241.9,34.4"/>
	<path class="st0" d="M249.4,80.9c41.8,1.6,82.4,17,114.9,43.6c3.2,2.6,7.9,2.2,10.6-1.1c2.6-3.2,2.1-7.9-1.1-10.6
		c-37.1-30.4-84-47.1-131.9-47.1c-115.1,0-208.7,93.6-208.7,208.7c0,115.1,93.6,208.7,208.7,208.7c115.1,0,208.7-93.6,208.7-208.7
		c0-50.7-18.5-99.5-52-137.6c-2.7-3.1-7.5-3.4-10.6-0.7c-3.1,2.7-3.4,7.5-0.7,10.6c29.4,33.5,46.4,75.9,48.1,120.2h-48.8
		c-1.8-34.3-15.5-65.5-37.1-89.5l1.3-1.4c2.9-2.9,2.9-7.7,0-10.6c-2.9-2.9-7.7-2.9-10.6,0l-1.3,1.3c-24-21.6-55.2-35.4-89.5-37.1
		V80.9z M241.9,468.1c-106.8,0-193.7-86.9-193.7-193.7c0-104.3,82.8-189.6,186.2-193.5v48.8c-34.3,1.8-65.5,15.5-89.5,37.1l-1.3-1.3
		c-2.9-2.9-7.7-2.9-10.6,0c-2.9,2.9-2.9,7.7,0,10.6l1.3,1.3c-21.6,24-35.4,55.2-37.1,89.5H74.1c-4.1,0-7.5,3.4-7.5,7.5
		c0,4.1,3.4,7.5,7.5,7.5h23.1c1.8,34.3,15.5,65.5,37.1,89.5l-1.3,1.3c-2.9,2.9-2.9,7.7,0,10.6c1.5,1.5,3.4,2.2,5.3,2.2
		c1.9,0,3.8-0.7,5.3-2.2l1.3-1.3c24,21.6,55.2,35.4,89.5,37.1v23.1c0,4.1,3.4,7.5,7.5,7.5c4.1,0,7.5-3.4,7.5-7.5v-23.1
		c34.3-1.8,65.5-15.5,89.5-37.1l1.3,1.3c1.5,1.5,3.4,2.2,5.3,2.2c1.9,0,3.8-0.7,5.3-2.2c2.9-2.9,2.9-7.7,0-10.6l-1.3-1.3
		c21.6-24,35.4-55.2,37.1-89.5h48.8C431.5,385.3,346.2,468.1,241.9,468.1L241.9,468.1z M328.2,177.5l-0.2,0.2
		c-2.9,2.9-2.9,7.7,0,10.6c1.5,1.5,3.4,2.2,5.3,2.2c1.9,0,3.8-0.7,5.3-2.2l0.2-0.2c18.9,21.2,31,48.7,32.7,78.8H350
		c-4.1,0-7.5,3.4-7.5,7.5c0,4.1,3.4,7.5,7.5,7.5h21.6c-1.7,30.2-13.8,57.6-32.7,78.8l-0.2-0.2c-2.9-2.9-7.7-2.9-10.6,0
		c-2.9,2.9-2.9,7.7,0,10.6l0.2,0.2c-21.2,18.9-48.7,31-78.8,32.7v-16.3h5c4.1,0,7.5-3.4,7.5-7.5c0-4.1-3.4-7.5-7.5-7.5h-25.1
		c-4.1,0-7.5,3.4-7.5,7.5c0,4.1,3.4,7.5,7.5,7.5h5v16.3c-30.2-1.7-57.6-13.8-78.8-32.7l0.2-0.2c2.9-2.9,2.9-7.7,0-10.6
		c-2.9-2.9-7.7-2.9-10.6,0l-0.2,0.2c-18.9-21.2-31-48.7-32.7-78.8h21.6c4.1,0,7.5-3.4,7.5-7.5c0-4.1-3.4-7.5-7.5-7.5h-21.6
		c1.7-30.2,13.8-57.6,32.7-78.8l0.2,0.2c1.5,1.5,3.4,2.2,5.3,2.2c1.9,0,3.8-0.7,5.3-2.2c2.9-2.9,2.9-7.7,0-10.6l-0.2-0.2
		c21.2-18.9,48.7-31,78.8-32.7v16.3h-5c-4.1,0-7.5,3.4-7.5,7.5c0,4.1,3.4,7.5,7.5,7.5h25.1c4.1,0,7.5-3.4,7.5-7.5
		c0-4.1-3.4-7.5-7.5-7.5h-5v-16.3C279.6,146.5,307,158.6,328.2,177.5L328.2,177.5z M328.2,177.5"/>
</g>
</svg>
