<?xml version="1.0" encoding="utf-8"?>
<!-- Generator: Adobe Illustrator 22.0.1, SVG Export Plug-In . SVG Version: 6.00 Build 0)  -->
<svg version="1.1" id="Layer_1" xmlns="http://www.w3.org/2000/svg" xmlns:xlink="http://www.w3.org/1999/xlink" x="0px" y="0px"
	 viewBox="0 0 405.8 514.3" style="enable-background:new 0 0 405.8 514.3;" xml:space="preserve">
<g>
<style type="text/css">
	.st0{fill:#3a32e9;}
</style>
	<path class="st0" d="M398.3,56.1c4.1,0,7.5-3.4,7.5-7.5V8.5c0-4.1-3.4-7.5-7.5-7.5h-40.1c-4.1,0-7.5,3.4-7.5,7.5V21H56.5V8.5
		C56.5,4.4,53.1,1,49,1H8.9C4.7,1,1.4,4.4,1.4,8.5v40.1c0,4.1,3.4,7.5,7.5,7.5H21v401.8H8.5c-4.1,0-7.5,3.4-7.5,7.5v40.1
		c0,4.1,3.4,7.5,7.5,7.5h40.1c4.1,0,7.5-3.4,7.5-7.5v-11.6h86.4v18.5h122v-63.3l44.9-110.5l0.1-0.3c4.1-11.4,0.6-24.4-8.6-31.7
		c-11.3-8.9-22.3-19.2-32.7-30.5c-15.2-16.5-28.2-42.3-38-64.3H309c3.7,11,14.2,19,26.5,19c15.4,0,28-12.6,28-28
		c0-15.4-12.6-28-28-28c-13.4,0-24.6,9.4-27.3,21.9H276c42.2-18.3,76.2-52,94.8-94.1v355.1h-12.5c-4.1,0-7.5,3.4-7.5,7.5v13.5h-58.3
		c-4.1,0-7.5,3.4-7.5,7.5c0,4.1,3.4,7.5,7.5,7.5h58.3v11.6c0,4.1,3.4,7.5,7.5,7.5h40.1c4.1,0,7.5-3.4,7.5-7.5v-40.1
		c0-4.1-3.4-7.5-7.5-7.5h-12.5V56.1H398.3z M335.5,190c7.2,0,13,5.8,13,13c0,7.2-5.8,13-13,13c-7.2,0-13-5.8-13-13
		C322.5,195.8,328.3,190,335.5,190L335.5,190z M16.4,41.1V16h25.1v25.1h-12c-0.3,0-0.6-0.1-0.9-0.1c-0.3,0-0.6,0-0.9,0.1H16.4z
		 M41.1,498H16v-25.1h25.1V498z M249.5,497.5h-92v-42h92V497.5z M291.6,318.6c4.1,3.2,5.7,9.4,3.8,14.6l-43.6,107.3h-96.7
		l-43.6-107.3c-1.9-5.3-0.3-11.4,3.8-14.6c11.9-9.4,23.5-20.2,34.5-32.1c22.8-24.7,40.2-66.5,50.6-91.4l1.7-4
		c0.2-0.6,0.7-1.2,1.4-1.2s1.2,0.7,1.4,1.2l1.7,4c1.4,3.4,3,7.2,4.7,11.2c0.2,0.8,0.5,1.6,1,2.3c10.6,24.7,25.9,57.3,44.9,78
		C268.1,298.3,279.7,309.1,291.6,318.6L291.6,318.6z M223.1,195.8c-1-2.3-1.9-4.5-2.7-6.6l-1.7-4c-2.7-6.4-8.5-10.5-15.3-10.5
		c-6.7,0-12.6,4-15.3,10.5l-1.7,4c-1,2.4-2.1,5-3.2,7.7H98.6c-2.8-12.5-14-21.9-27.3-21.9c-15.4,0-28,12.6-28,28
		c0,15.4,12.6,28,28,28c12.3,0,22.8-8,26.5-19h79.1c-9.8,22.1-22.8,47.8-38,64.3c-10.4,11.3-21.4,21.6-32.7,30.5
		c-9.2,7.2-12.7,20.3-8.6,31.7l45,110.8v29.7H56.1v-13.5c0-4.1-3.4-7.5-7.5-7.5H36.1V103c14.4,32.9,38.5,61,69.8,80.8
		c1.2,0.8,2.6,1.2,4,1.2c2.5,0,4.9-1.2,6.4-3.5c2.2-3.5,1.2-8.1-2.3-10.4c-41-25.9-68.4-67.6-76.1-115H49c4.1,0,7.5-3.4,7.5-7.5V36
		h294.2v12.6c0,4.1,3.4,7.5,7.5,7.5H369C357.1,129.7,297.4,187.1,223.1,195.8L223.1,195.8z M84.2,203c0,7.2-5.8,13-13,13
		c-7.2,0-13-5.8-13-13c0-7.2,5.8-13,13-13C78.4,190,84.2,195.8,84.2,203L84.2,203z M390.8,472.9V498h-25.1v-25.1H390.8z M378.6,41.1
		c0,0-0.1,0-0.1,0c-0.6-0.1-1.2-0.1-1.8,0h-11V16h25.1v25.1H378.6z M378.6,41.1"/>
	<path class="st0" d="M203.5,307c-21.3,0-34.9,37.5-34.9,53.3c0,17.4,15.6,31.6,34.9,31.6c19.2,0,34.9-14.2,34.9-31.6
		C238.3,344.4,224.8,307,203.5,307L203.5,307z M203.5,376.9c-11,0-19.9-7.4-19.9-16.6c0-5,2.5-15.3,7.2-24.5
		c4.8-9.5,9.8-13.8,12.7-13.8c2.8,0,7.8,4.3,12.7,13.8c4.7,9.3,7.2,19.5,7.2,24.5C223.3,369.4,214.4,376.9,203.5,376.9L203.5,376.9z
		 M203.5,376.9"/>
</g>
</svg>
