<?xml version="1.0" encoding="utf-8"?>
<!-- Generator: Adobe Illustrator 22.0.1, SVG Export Plug-In . SVG Version: 6.00 Build 0)  -->
<svg version="1.1" id="Layer_1" xmlns="http://www.w3.org/2000/svg" xmlns:xlink="http://www.w3.org/1999/xlink" x="0px" y="0px"
	 viewBox="0 0 519 474.6" style="enable-background:new 0 0 519 474.6;" xml:space="preserve">
<style type="text/css">
	.st0{display:none;fill:#D49DC7;stroke:#000000;stroke-miterlimit:10;}
	.st1{fill:#3a32e9;}
</style>
<rect x="5" y="-38" class="st0" width="511.6" height="511.6"/>
<g>
	<path class="st1" d="M178.1,295.3c0-4.1-3.4-7.5-7.5-7.5H64c-4.1,0-7.5,3.4-7.5,7.5c0,4.1,3.4,7.5,7.5,7.5h106.6
		C174.8,302.8,178.1,299.5,178.1,295.3L178.1,295.3z M178.1,295.3"/>
	<path class="st1" d="M406.9,302.8c4.1,0,7.5-3.4,7.5-7.5c0-4.1-3.4-7.5-7.5-7.5h-71.2c-4.1,0-7.5,3.4-7.5,7.5c0,4.1,3.4,7.5,7.5,7.5H406.9z
		 M406.9,302.8"/>
	<path class="st1" d="M263.8,302.8c4.1,0,7.5-3.4,7.5-7.5c0-4.1-3.4-7.5-7.5-7.5h-56.1c-4.1,0-7.5,3.4-7.5,7.5c0,4.1,3.4,7.5,7.5,7.5H263.8z
		 M263.8,302.8"/>
	<path class="st1" d="M370.6,348.8c0-4.1-3.4-7.5-7.5-7.5H256.5c-4.1,0-7.5,3.4-7.5,7.5c0,4.1,3.4,7.5,7.5,7.5h106.6
		C367.3,356.3,370.6,353,370.6,348.8L370.6,348.8z M370.6,348.8"/>
	<path class="st1" d="M227.6,348.8c0-4.1-3.4-7.5-7.5-7.5H164c-4.1,0-7.5,3.4-7.5,7.5c0,4.1,3.4,7.5,7.5,7.5h56.1
		C224.2,356.3,227.6,353,227.6,348.8L227.6,348.8z M227.6,348.8"/>
	<path class="st1" d="M187.8,411.5h106.6c4.1,0,7.5-3.4,7.5-7.5c0-4.1-3.4-7.5-7.5-7.5H187.8c-4.1,0-7.5,3.4-7.5,7.5
		C180.3,408.1,183.7,411.5,187.8,411.5L187.8,411.5z M187.8,411.5"/>
	<path class="st1" d="M63.9,411.5H120c4.1,0,7.5-3.4,7.5-7.5c0-4.1-3.4-7.5-7.5-7.5H63.9c-4.1,0-7.5,3.4-7.5,7.5
		C56.4,408.1,59.8,411.5,63.9,411.5L63.9,411.5z M63.9,411.5"/>
	<path class="st1" d="M509.5,396.5h-19.3c-4.1,0-7.5,3.4-7.5,7.5c0,4.1,3.4,7.5,7.5,7.5h19.3c4.1,0,7.5-3.4,7.5-7.5
		C517,399.8,513.6,396.5,509.5,396.5L509.5,396.5z M509.5,396.5"/>
	<path class="st1" d="M455.4,396.5h-16v-93.2h55.3c12,0,21.8-9.8,21.8-21.8V26.8c0-12-9.8-21.8-21.8-21.8H103.8C91.8,5,82,14.8,82,26.8v148.6
		H26.5C14.6,175.3,5,185,5,196.8v255.3c0,11.9,9.6,21.5,21.5,21.5h391.3c11.9,0,21.5-9.6,21.5-21.5v-13c0-4.1-3.4-7.5-7.5-7.5
		c-4.1,0-7.5,3.4-7.5,7.5v13c0,3.6-2.9,6.5-6.5,6.5H26.5c-3.6,0-6.5-2.9-6.5-6.5V257.6h404.3v138.9h-52.8c-4.1,0-7.5,3.4-7.5,7.5
		c0,4.1,3.4,7.5,7.5,7.5h83.8c4.1,0,7.5-3.4,7.5-7.5C462.9,399.8,459.5,396.5,455.4,396.5L455.4,396.5z M97,26.8
		c0-3.7,3-6.8,6.8-6.8h390.8c3.7,0,6.8,3,6.8,6.8v45.4H125.1c-4.1,0-7.5,3.4-7.5,7.5c0,4.1,3.4,7.5,7.5,7.5h376.3v194.3
		c0,3.7-3,6.8-6.8,6.8h-55.3v-91.5c0-11.9-9.6-21.5-21.5-21.5H97V26.8z M20,242.6v-45.7c0-3.6,2.9-6.5,6.5-6.5h391.3
		c3.6,0,6.5,2.9,6.5,6.5v45.7H20z M20,242.6"/>
	<path class="st1" d="M149.4,45.9c0-12.1-9.9-22-22-22c-12.1,0-22,9.9-22,22s9.9,22,22,22C139.6,67.9,149.4,58,149.4,45.9L149.4,45.9z
		 M120.4,45.9c0-3.9,3.1-7,7-7c3.9,0,7,3.1,7,7c0,3.9-3.1,7-7,7C123.6,52.9,120.4,49.7,120.4,45.9L120.4,45.9z M120.4,45.9"/>
	<path class="st1" d="M180.2,67.9c12.1,0,22-9.9,22-22s-9.9-22-22-22c-12.1,0-22,9.9-22,22S168.1,67.9,180.2,67.9L180.2,67.9z M180.2,38.9
		c3.9,0,7,3.1,7,7c0,3.9-3.1,7-7,7c-3.9,0-7-3.1-7-7C173.2,42,176.4,38.9,180.2,38.9L180.2,38.9z M180.2,38.9"/>
	<path class="st1" d="M233,67.9c12.1,0,22-9.9,22-22s-9.9-22-22-22c-12.1,0-22,9.9-22,22S220.9,67.9,233,67.9L233,67.9z M233,38.9
		c3.9,0,7,3.1,7,7c0,3.9-3.1,7-7,7c-3.9,0-7-3.1-7-7C226,42,229.2,38.9,233,38.9L233,38.9z M233,38.9"/>
	<path class="st1" d="M50.4,194.2c-12.1,0-22,9.9-22,22c0,12.1,9.9,22,22,22c12.1,0,22-9.9,22-22C72.4,204.1,62.5,194.2,50.4,194.2L50.4,194.2z
		 M50.4,223.2c-3.9,0-7-3.1-7-7c0-3.9,3.1-7,7-7c3.9,0,7,3.1,7,7C57.4,220.1,54.3,223.2,50.4,223.2L50.4,223.2z M50.4,223.2"/>
	<path class="st1" d="M103.2,194.2c-12.1,0-22,9.9-22,22c0,12.1,9.9,22,22,22s22-9.9,22-22C125.2,204.1,115.3,194.2,103.2,194.2L103.2,194.2z
		 M103.2,223.2c-3.9,0-7-3.1-7-7c0-3.9,3.1-7,7-7c3.9,0,7,3.1,7,7C110.2,220.1,107.1,223.2,103.2,223.2L103.2,223.2z M103.2,223.2"
		/>
	<path class="st1" d="M156,194.2c-12.1,0-22,9.9-22,22c0,12.1,9.9,22,22,22c12.1,0,22-9.9,22-22C178,204.1,168.1,194.2,156,194.2L156,194.2z
		 M156,223.2c-3.9,0-7-3.1-7-7c0-3.9,3.1-7,7-7c3.9,0,7,3.1,7,7C163,220.1,159.9,223.2,156,223.2L156,223.2z M156,223.2"/>
	<path class="st1" d="M83.7,326.5c-2.9-2.9-7.7-2.9-10.6,0l-17,17c-2.9,2.9-2.9,7.7,0,10.6l17,17c1.5,1.5,3.4,2.2,5.3,2.2c1.9,0,3.8-0.7,5.3-2.2
		c2.9-2.9,2.9-7.7,0-10.6l-11.7-11.7l11.7-11.7C86.6,334.2,86.6,329.4,83.7,326.5L83.7,326.5z M83.7,326.5"/>
	<path class="st1" d="M131.4,343.5l-17-17c-2.9-2.9-7.7-2.9-10.6,0c-2.9,2.9-2.9,7.7,0,10.6l11.7,11.7l-11.7,11.7c-2.9,2.9-2.9,7.7,0,10.6
		c1.5,1.5,3.4,2.2,5.3,2.2c1.9,0,3.8-0.7,5.3-2.2l17-17C134.3,351.2,134.3,346.5,131.4,343.5L131.4,343.5z M131.4,343.5"/>
	<path class="st1" d="M170.5,381.6c-2.9-2.9-7.7-2.9-10.6,0l-17,17c-2.9,2.9-2.9,7.7,0,10.6l17,17c1.5,1.5,3.4,2.2,5.3,2.2
		c1.9,0,3.8-0.7,5.3-2.2c2.9-2.9,2.9-7.7,0-10.6L158.7,404l11.7-11.7C173.4,389.3,173.4,384.6,170.5,381.6L170.5,381.6z
		 M170.5,381.6"/>
	<path class="st1" d="M313.3,426.3c1.5,1.5,3.4,2.2,5.3,2.2c1.9,0,3.8-0.7,5.3-2.2l17-17c2.9-2.9,2.9-7.7,0-10.6l-17-17c-2.9-2.9-7.7-2.9-10.6,0
		c-2.9,2.9-2.9,7.7,0,10.6l11.7,11.7l-11.7,11.7C310.4,418.7,310.4,423.4,313.3,426.3L313.3,426.3z M313.3,426.3"/>
	<path class="st1" d="M292.4,314l22.9-22.9c2.9-2.9,2.9-7.7,0-10.6c-2.9-2.9-7.7-2.9-10.6,0l-22.9,22.9c-2.9,2.9-2.9,7.7,0,10.6
		c1.5,1.5,3.4,2.2,5.3,2.2C289.1,316.2,291,315.4,292.4,314L292.4,314z M292.4,314"/>
</g>
</svg>
