<?xml version="1.0" encoding="utf-8"?>
<!-- Generator: Adobe Illustrator 22.0.1, SVG Export Plug-In . SVG Version: 6.00 Build 0)  -->
<svg version="1.1" id="Capa_1" xmlns="http://www.w3.org/2000/svg" xmlns:xlink="http://www.w3.org/1999/xlink" x="0px" y="0px"
	 viewBox="-49 141 512 512" style="enable-background:new -49 141 512 512;" xml:space="preserve">
<style type="text/css">
	.st0{fill:#3a32e9;}
</style>
<g>
	<path class="st0" d="M330.9,375.1c28.4,0,51.5-23.1,51.5-51.5s-23.1-51.5-51.5-51.5s-51.5,23.1-51.5,51.5S302.5,375.1,330.9,375.1z
		 M330.9,292.1c17.4,0,31.5,14.1,31.5,31.5c0,17.4-14.1,31.5-31.5,31.5s-31.5-14.1-31.5-31.5S313.5,292.1,330.9,292.1z"/>
	<path class="st0" d="M331.2,592.2c-0.3-0.6-0.6-1.2-0.9-1.7c-0.4-0.5-0.8-1.1-1.2-1.5s-1-0.9-1.5-1.2c-0.5-0.4-1.1-0.7-1.7-0.9
		c-0.6-0.3-1.2-0.5-1.9-0.6c-1.3-0.3-2.6-0.3-3.9,0c-0.6,0.1-1.3,0.3-1.9,0.6c-0.6,0.3-1.2,0.6-1.7,0.9c-0.5,0.4-1.1,0.8-1.5,1.2
		s-0.9,1-1.2,1.5c-0.4,0.5-0.7,1.1-0.9,1.7c-0.3,0.6-0.5,1.2-0.6,1.9c-0.1,0.6-0.2,1.3-0.2,2s0.1,1.3,0.2,2c0.1,0.6,0.3,1.3,0.6,1.9
		c0.3,0.6,0.6,1.2,0.9,1.7c0.4,0.5,0.8,1.1,1.2,1.5c0.2,0.2,0.5,0.4,0.7,0.7c0.3,0.2,0.5,0.4,0.8,0.6c0.5,0.4,1.1,0.7,1.7,0.9
		c0.6,0.3,1.2,0.5,1.9,0.6c0.6,0.1,1.3,0.2,2,0.2c0.6,0,1.3-0.1,2-0.2c0.6-0.1,1.3-0.3,1.9-0.6c0.6-0.3,1.2-0.6,1.7-0.9
		c0.3-0.2,0.5-0.4,0.8-0.6c0.3-0.2,0.5-0.4,0.7-0.7c0.5-0.5,0.9-1,1.2-1.5c0.4-0.5,0.7-1.1,0.9-1.7c0.3-0.6,0.5-1.2,0.6-1.9
		c0.1-0.6,0.2-1.3,0.2-2s-0.1-1.3-0.2-2C331.7,593.4,331.5,592.8,331.2,592.2z"/>
	<path class="st0" d="M155.4,204.1c0.3,0.6,0.6,1.2,0.9,1.7c0.4,0.5,0.8,1.1,1.3,1.5c0.5,0.5,1,0.9,1.5,1.2c0.5,0.4,1.1,0.7,1.7,0.9
		c0.6,0.3,1.2,0.4,1.9,0.6c0.6,0.1,1.3,0.2,1.9,0.2s1.3-0.1,1.9-0.2c0.6-0.1,1.3-0.3,1.9-0.6c0.6-0.3,1.2-0.6,1.7-0.9
		c0.6-0.4,1.1-0.8,1.5-1.2c0.5-0.5,0.9-1,1.2-1.5c0.4-0.6,0.7-1.1,0.9-1.7c0.3-0.6,0.4-1.2,0.6-1.9c0.1-0.7,0.2-1.3,0.2-2
		c0-0.7-0.1-1.3-0.2-2c-0.1-0.6-0.3-1.3-0.6-1.9c-0.3-0.6-0.6-1.2-0.9-1.7c-0.4-0.5-0.8-1.1-1.2-1.5c-0.5-0.5-1-0.9-1.5-1.2
		c-0.5-0.4-1.1-0.7-1.7-0.9c-0.6-0.3-1.2-0.4-1.9-0.6c-1.3-0.3-2.6-0.3-3.9,0c-0.6,0.1-1.3,0.3-1.9,0.6c-0.6,0.3-1.2,0.6-1.7,0.9
		c-0.6,0.4-1.1,0.8-1.5,1.2c-0.5,0.5-0.9,1-1.3,1.5c-0.4,0.6-0.7,1.1-0.9,1.7c-0.3,0.6-0.4,1.2-0.6,1.9c-0.1,0.6-0.2,1.3-0.2,2
		c0,0.7,0.1,1.3,0.2,2C154.9,202.9,155.1,203.5,155.4,204.1z"/>
	<path class="st0" d="M407.1,190.3c-6-25.3-28.8-44.3-56-44.3H37.4c-47.7,0-86.4,38.8-86.4,86.4v313.8c0,31.2,24.9,56.6,55.9,57.5
		c6,25.3,28.8,44.3,56,44.3h342.7c31.7,0,57.5-25.8,57.5-57.5V515V247.8C463,216.6,438.1,191.2,407.1,190.3z M443,590.4
		c0,20.7-16.8,37.5-37.5,37.5H62.8c-16,0-29.7-10.1-35.1-24.2c-1.6-4.1-2.4-8.6-2.4-13.3v-6.7v-46.3L140,342.9
		c3.5-5.9,9.7-9.4,16.6-9.3c6.9,0.1,12.9,3.8,16.2,9.8l49.4,90.7L294,566c1.8,3.3,5.2,5.2,8.8,5.2c1.6,0,3.3-0.4,4.8-1.2
		c4.9-2.6,6.6-8.7,4-13.6l-23.3-42.8c10.2,0.5,20.3-2.8,28.3-9.5l45-37.3c7.2-6,17.9-5.7,24.8,0.6l2.3,2.2l20,18.3l34.3,31.5V590.4z
		 M443,492.3l-34.3-31.5l-20-15.2c-13-5.5-28.5-3.6-39.9,5.9l-45,37.3c-4.9,4.1-11.4,5.8-17.7,4.5c-6.3-1.2-11.7-5.1-14.8-10.8
		l-31.6-57.9l-17.6-32.4v0l-31.8-58.4c-6.8-12.4-19.3-20-33.5-20.3c-14.2-0.2-26.9,6.9-34.1,19.1L25.3,498V247.8
		c0-20.7,16.8-37.5,37.5-37.5h61.8c5.5,0,10-4.5,10-10s-4.5-10-10-10H62.8c-31.7,0-57.5,25.8-57.5,57.5v286.9v48.9
		C-13.9,582-29,565.8-29,546.2V232.5c0-36.6,29.8-66.4,66.4-66.4h313.8c16,0,29.7,10.1,35.1,24.2H204.6c-5.5,0-10,4.5-10,10
		c0,5.5,4.5,10,10,10h184.1l20,0.1c19.2,1.6,34.3,17.8,34.3,37.4V492.3z"/>
</g>
</svg>
