<?xml version="1.0" encoding="utf-8"?>
<!-- Generator: Adobe Illustrator 22.0.1, SVG Export Plug-In . SVG Version: 6.00 Build 0)  -->
<svg version="1.1" id="Layer_1" xmlns="http://www.w3.org/2000/svg" xmlns:xlink="http://www.w3.org/1999/xlink" x="0px" y="0px"
	 viewBox="0 0 904 401.7" style="enable-background:new 0 0 904 401.7;" xml:space="preserve">
<style type="text/css">
	.st0{fill:none;stroke:#00E2BC;stroke-width:2;stroke-miterlimit:10;}
</style>
<g id="XMLID_1_">
	<path id="XMLID_7_" class="st0" d="M-38,416.6c15-4,30,4,44,8c15,6,32,4,47-4c2-1,5-1,7-3c1-1,1-1,2-2c3-2,6-3,9-5c13-7,27-8,41-5
		c12,1,22,10,34,12c19,5,37,3,54-7c13-9,29-10,44-8c11,2,20,8,30,14c13,7,28,8,43,5c12-3,21-9,33-12c10-2,19-1,29,1
		c12,3,21,11.3,31,17.3c15,7,33,10.3,49,4.3c1,0,2,0,3,0c20-11,43-11.3,63-3.3c1,0,1,0.9,2,1.9c2,1,4,0.9,5,1.9c16,13,35,16,54,12
		c14-4,25-12,39-14c9-1,17-1,26,1c12,3,20,10,31,14c17,5,36,3,52-5c1-1,1-1,2-2c3-2,6-3,9-4c14-8,29-9,44-6c11,3,20,9,31,12
		c14,3,27,2,39-4c15-8,30-18,47-21"/>
	<path class="st0" d="M-37.5,409c14.9-3.9,30.1,3.3,44,8c15.3,5.2,31.8,3.8,47-3.7c2-1,5.1-0.9,7.1-2.9c1-1,0.9-1.1,2-2
		c2.8-2.3,5.9-3.1,9-5c12.6-7.6,26.7-7.3,40.8-5.3c6,0.8,11.6,2.9,17.1,5.5c5.4,2.6,11,5,16.9,6.2c19.2,4.1,37.3,3.7,54-6.7
		c9.7-6,20.5-8.6,31.5-8.6c4.2,0,8.4,0.2,12.5,0.8c11,1.7,19.9,8,30,13.6s21.8,7.1,33.6,6.1c3.1-0.3,6.3-0.6,9.4-1.3
		c12-2.6,20.9-9,33-11.6c9.9-2.1,19-1.1,28.9,1.1c8.6,2,15.6,6.9,22.6,11.6c2.8,1.9,5.5,3.9,8.4,5.4c14.6,7.6,32.9,9.9,48.9,3.8
		c1,0,2,0,3,0c20-11,42.9-11.5,62.8-3.7c1,0,0.9,1,2,1.8c1.8,1.3,3.9,1,5,1.9c2.5,2.2,5.4,3.9,8.2,5.5c14.1,8,30,10.3,45.7,6.7
		c14-3.2,24.8-11.6,38.8-13.2c8.9-1,16.9-1,25.9,1.1c12,2.8,19.9,10.1,31,13.7c16.8,5.4,37.4,5.3,52-5.1c1.1-0.8,0.9-1.1,2-2
		c2.8-2.3,6.1-2.7,9-4c6.4-2.8,12.4-5.6,18.8-6.6c8.3-1.4,16.8-1.2,25.2,0.8c11.1,2.6,19.9,9.2,31,12c13.9,3.4,27,2.2,39-3.8
		C874,421.4,889.7,411,907,408"/>
	<path class="st0" d="M-36.9,401.5c14.8-3.9,30.1,3.3,43.9,8c15.3,5.2,31.7,3.8,46.9-3.4c2.1-1,5.2-0.9,7.3-2.8c1-1,0.9-1.1,2-1.9
		c2.8-2.2,5.9-3.1,9-4.9c12.6-7.5,26.6-7.5,40.6-5.7c6,0.8,11.5,2.8,17.1,5.3c5.4,2.5,11,4.9,16.9,6.1c19.1,4.1,37.2,3.8,53.9-6.3
		c9.7-5.9,20.5-8.4,31.5-8.4c4.2,0,8.4,0.2,12.4,0.8c11,1.6,19.9,7.7,30,13.2c10.1,5.4,21.7,6.8,33.6,5.9c3.1-0.2,6.3-0.6,9.4-1.3
		c12-2.6,20.9-8.8,33-11.3c9.9-2.1,19-1,28.9,1.3c8.6,2,15.7,6.9,22.7,11.5c2.8,1.8,5.5,3.8,8.4,5.3c14.6,7.4,32,6.7,48.8,3.4
		c1-0.2,2,0,3-0.1c19.9-11,42.8-11.7,62.7-4.1c1,0,0.9,1,2,1.8c1.8,1.3,3.9,0.9,5,1.8c2.6,2.2,5.4,3.8,8.2,5.4
		c14.2,7.9,29.9,10.3,45.5,7c13.9-3,24.7-11,38.5-12.5c8.9-0.9,16.9-0.8,25.8,1.3c12,2.8,19.9,9.9,31,13.4
		c16.8,5.2,37.3,5.1,51.9-5.2c1.1-0.8,0.9-1.1,2-1.9c2.8-2.2,6.1-2.7,9-3.9c6.4-2.8,12.4-5.5,18.8-6.5c8.3-1.3,16.8-1.2,25.2,0.8
		c11.1,2.6,19.9,9.2,31,11.9c13.8,3.4,26.9,2.2,38.9-3.7c15.7-7.7,32.1-18.2,49.9-21.2"/>
	<path class="st0" d="M-36.4,393.9c14.8-3.8,30,3.3,43.9,8.1c15.3,5.2,31.7,3.8,46.9-3.1c2.1-1,5.3-0.8,7.4-2.8c1-0.9,1-1.1,2-1.9
		c2.8-2.2,5.9-3.1,9-4.9c12.6-7.5,26.5-7.7,40.5-6c5.9,0.7,11.5,2.6,17.1,5.2c5.4,2.5,11,4.8,16.9,6.1c19,4,37.2,3.8,53.9-6
		c9.7-5.7,20.5-8.1,31.5-8.1c4.2,0,8.4,0.2,12.4,0.8c11,1.5,19.9,7.5,30,12.7c10.1,5.3,21.7,6.6,33.5,5.7c3.1-0.2,6.2-0.6,9.4-1.2
		c12-2.5,20.9-8.5,32.9-10.9c9.9-2,19-0.8,28.8,1.4c8.6,2,15.7,6.8,22.7,11.4c2.8,1.8,5.5,3.7,8.4,5.2c14.6,7.2,31.9,6.4,48.7,3
		c1-0.2,2-0.1,3-0.1c19.9-11,42.7-11.9,62.5-4.6c1,0,0.9,1,2,1.7c1.8,1.2,3.9,0.9,5,1.8c2.6,2.1,5.4,3.8,8.2,5.3
		c14.2,7.8,29.9,10.4,45.3,7.3c13.8-2.7,24.5-10.4,38.3-11.7c8.8-0.8,16.8-0.6,25.7,1.4c11.9,2.7,19.9,9.7,31.1,13.1
		c16.8,5.1,37.3,4.8,51.9-5.3c1.1-0.8,1-1.1,2-1.9c2.8-2.2,6.1-2.6,9-3.9c6.4-2.8,12.4-5.4,18.8-6.5c8.3-1.3,16.8-1.1,25.1,0.8
		c11.1,2.6,19.9,9.1,31,11.9c13.8,3.4,26.8,2.2,38.9-3.5c16.1-7.6,33.2-18.3,51.3-21.3"/>
	<path class="st0" d="M-35.9,386.3c14.7-3.8,29.9,3.3,43.9,8.1c15.3,5.2,31.6,3.8,46.8-2.8c2.2-1,5.4-0.8,7.6-2.7c1-0.9,1-1,2-1.9
		c2.8-2.2,5.9-3,9-4.9c12.6-7.5,26.3-7.9,40.3-6.4c5.9,0.6,11.5,2.5,17.1,5c5.4,2.4,11,4.7,16.9,6c19,4,37.1,3.9,53.8-5.6
		c9.8-5.6,20.6-7.9,31.5-7.9c4.2,0,8.3,0.2,12.4,0.7c11,1.5,19.9,7.2,30,12.3c10.1,5.1,21.7,6.3,33.5,5.4c3.1-0.2,6.2-0.6,9.4-1.2
		c11.9-2.4,21-8.3,32.9-10.6c9.9-1.9,19-0.7,28.8,1.6c8.6,2,15.7,6.8,22.7,11.3c2.8,1.8,5.5,3.7,8.5,5.1c14.6,7,31.8,6,48.6,2.6
		c1-0.2,2-0.1,3-0.1c19.9-11,42.6-12.1,62.4-5c1,0,0.9,0.9,2,1.7c1.8,1.2,3.9,0.9,5,1.7c2.6,2.1,5.4,3.7,8.2,5.2
		c14.2,7.7,29.8,10.4,45.1,7.6c13.7-2.5,24.3-9.8,38-10.9c8.8-0.7,16.7-0.5,25.6,1.5c11.9,2.7,20,9.5,31.1,12.8
		c16.8,4.9,37.2,4.6,51.8-5.4c1.1-0.8,1-1.1,2-1.9c2.8-2.2,6.1-2.6,9-3.8c6.4-2.7,12.4-5.4,18.8-6.4c8.3-1.3,16.8-1.1,25.1,0.9
		c11.1,2.6,19.9,9.1,31,11.8c13.7,3.4,26.7,2.3,38.9-3.3c16.4-7.5,34.2-18.4,52.8-21.4"/>
	<path class="st0" d="M-35.4,378.8c14.6-3.7,29.9,3.3,43.8,8.1c15.3,5.2,31.6,3.8,46.8-2.5c2.3-0.9,5.5-0.7,7.7-2.6
		c1-0.9,1-1,2.1-1.9c2.8-2.2,6-3,9-4.8c12.6-7.5,26.2-8.1,40.1-6.7c5.9,0.6,11.5,2.4,17.1,4.8c5.4,2.3,11,4.6,16.9,5.9
		c18.9,4,37,4,53.8-5.3c9.8-5.4,20.6-7.7,31.5-7.7c4.2,0,8.3,0.2,12.4,0.7c11,1.4,19.9,7,30,11.9s21.6,6.1,33.5,5.2
		c3.1-0.2,6.2-0.5,9.3-1.2c11.9-2.3,21-8,32.9-10.2c9.9-1.8,18.9-0.6,28.7,1.7c8.6,2,15.7,6.8,22.7,11.2c2.8,1.8,5.5,3.6,8.5,5
		c14.5,6.8,31.7,5.7,48.5,2.2c1-0.2,2-0.1,3-0.1c19.9-11,42.5-12.3,62.2-5.5c1,0,0.9,0.9,2.1,1.6c1.8,1.2,3.9,0.8,5,1.7
		c2.6,2,5.4,3.6,8.2,5.1c14.2,7.5,29.7,10.4,45,7.9c13.6-2.2,24.2-9.2,37.8-10.2c8.7-0.6,16.6-0.3,25.5,1.7
		c11.9,2.6,20,9.3,31.1,12.5c16.8,4.8,37.1,4.4,51.8-5.6c1.1-0.8,1-1,2.1-1.9c2.8-2.2,6.1-2.6,9-3.8c6.4-2.7,12.4-5.3,18.8-6.3
		c8.3-1.3,16.8-1.1,25.1,0.9c11.1,2.6,20,9,30.9,11.8c13.7,3.4,26.7,2.3,38.9-3.2c16.7-7.5,35.3-18.5,54.2-21.5"/>
	<path class="st0" d="M-34.8,371.2c14.5-3.7,29.8,3.3,43.8,8.1c15.3,5.2,31.5,3.8,46.7-2.1c2.3-0.9,5.6-0.6,7.8-2.5
		c1-0.9,1-1,2.1-1.8c2.8-2.1,6-3,9-4.8c12.5-7.4,26.1-8.3,39.9-7.1c5.9,0.5,11.4,2.2,17.1,4.6c5.4,2.3,10.9,4.6,16.9,5.8
		c18.9,4,37,4.1,53.7-5c9.8-5.3,20.6-7.4,31.5-7.4c4.2,0,8.3,0.2,12.4,0.7c11,1.3,19.9,6.7,29.9,11.5c10.1,4.8,21.6,5.8,33.4,5
		c3.1-0.2,6.2-0.5,9.3-1.1c11.9-2.2,21-7.8,32.9-9.8c9.8-1.7,18.9-0.4,28.7,1.8c8.6,2,15.7,6.7,22.7,11c2.8,1.7,5.5,3.5,8.5,4.9
		c14.5,6.6,31.7,5.4,48.4,1.8c1-0.2,2-0.1,2.9-0.2c19.8-11,42.4-12.5,62.1-5.9c1,0,1,0.9,2.1,1.6c1.8,1.1,3.9,0.8,5,1.6
		c2.6,2,5.5,3.5,8.3,5c14.2,7.4,29.6,10.5,44.8,8.3c13.5-2,24-8.6,37.5-9.4c8.7-0.5,16.6-0.1,25.4,1.8c11.8,2.6,20,9.1,31.1,12.2
		c16.8,4.6,37.1,4.2,51.8-5.7c1.1-0.8,1-1,2.1-1.8c2.8-2.1,6.1-2.5,9-3.8c6.4-2.7,12.4-5.2,18.8-6.2c8.3-1.3,16.8-1,25.1,0.9
		c11,2.6,20,9,30.9,11.7c13.7,3.4,26.6,2.4,38.8-3c17-7.4,36.4-18.6,55.7-21.6"/>
	<path class="st0" d="M-34.3,363.6c14.5-3.6,29.7,3.3,43.8,8.1c15.3,5.2,31.5,3.9,46.7-1.8c2.4-0.9,5.7-0.6,8-2.4c1-0.9,1-1,2.1-1.8
		c2.9-2.1,6-2.9,9-4.8c12.5-7.4,25.9-8.5,39.7-7.4c5.9,0.4,11.4,2.1,17.1,4.5c5.4,2.2,10.9,4.5,16.9,5.7c18.8,3.9,36.9,4.1,53.7-4.6
		c9.8-5.1,20.6-7.2,31.5-7.2c4.2,0,8.3,0.1,12.4,0.6c11,1.3,19.9,6.4,29.9,11c10.1,4.6,21.6,5.6,33.4,4.8c3.1-0.2,6.2-0.5,9.3-1.1
		c11.8-2.2,21-7.5,32.9-9.5c9.8-1.6,18.9-0.3,28.6,2c8.6,2,15.7,6.7,22.7,10.9c2.8,1.7,5.6,3.4,8.5,4.8c14.5,6.5,31.6,5.1,48.3,1.3
		c1-0.2,2-0.1,2.9-0.2c19.8-11,41.7-2.1,61.9-6.4c1-0.2,1,0.9,2.1,1.6c1.8,1.1,3.9,0.8,5,1.6c2.6,1.9,5.5,3.4,8.3,4.9
		c14.2,7.3,29.5,10.5,44.6,8.6c13.4-1.7,23.9-8,37.3-8.6c8.6-0.4,16.5,0.1,25.3,1.9c11.8,2.5,20,8.9,31.1,11.9
		c16.8,4.4,37,4,51.7-5.8c1.1-0.7,1-1,2.1-1.8c2.8-2.1,6.1-2.5,9-3.7c6.4-2.6,12.5-5.2,18.8-6.1c8.3-1.2,16.8-1,25.1,1
		c11,2.6,20,8.9,30.9,11.7c13.6,3.4,26.5,2.4,38.8-2.8c17.4-7.4,37.4-18.7,57.1-21.7"/>
	<path class="st0" d="M-33.8,356.1c14.4-3.6,29.6,3.3,43.7,8.1c15.3,5.2,31.5,3.9,46.6-1.5c2.4-0.9,5.8-0.5,8.1-2.4
		c1-0.8,1-1,2.1-1.8c2.9-2.1,6-2.9,9-4.7c12.5-7.4,25.8-8.7,39.6-7.8c5.8,0.4,11.4,2,17,4.3c5.4,2.2,10.9,4.4,16.9,5.6
		c18.8,3.9,36.9,4.2,53.6-4.3c9.8-5,20.7-6.9,31.4-7c4.2,0,8.3,0.1,12.4,0.6c11,1.2,19.9,6.2,29.9,10.6c10.1,4.4,21.5,5.3,33.4,4.5
		c3.1-0.2,6.2-0.5,9.3-1c11.8-2.1,21-7.3,32.8-9.1c9.8-1.5,18.9-0.2,28.6,2.1c8.6,2,15.7,6.6,22.8,10.8c2.8,1.7,5.6,3.4,8.5,4.6
		c14.5,6.3,31.5,4.8,48.2,0.9c1-0.2,1.9-0.1,2.9-0.2c19.8-11,41.7-2.5,61.8-6.8c1-0.2,1,0.8,2.1,1.5c1.8,1.1,3.9,0.7,5,1.5
		c2.7,1.9,5.5,3.3,8.3,4.8c14.2,7.1,29.4,10.6,44.4,8.9c13.3-1.5,23.7-7.4,37-7.9c8.6-0.3,16.4,0.2,25.2,2.1
		c11.8,2.5,20,8.7,31.2,11.6c16.8,4.3,36.9,3.8,51.7-5.9c1.1-0.7,1-1,2.1-1.8c2.8-2.1,6.1-2.5,9-3.7c6.4-2.6,12.5-5.1,18.8-6
		c8.3-1.2,16.8-0.9,25,1c11,2.6,20,8.9,30.9,11.6c13.6,3.4,26.4,2.4,38.8-2.7c17.7-7.3,38.5-18.8,58.6-21.8"/>
	<path class="st0" d="M-33.2,348.5c14.3-3.5,29.6,3.3,43.7,8.2c15.3,5.2,31.4,4,46.6-1.2c2.5-0.9,6-0.5,8.2-2.3c1-0.8,1-1,2.1-1.7
		c2.9-2.1,6-2.9,9-4.7c12.5-7.3,25.7-8.9,39.4-8.1c5.8,0.3,11.3,1.9,17,4.1c5.4,2.1,10.9,4.3,16.9,5.6c18.7,3.9,36.8,4.3,53.6-3.9
		c9.9-4.8,20.7-6.7,31.4-6.7c4.2,0,8.3,0.1,12.4,0.6c10.9,1.2,19.9,5.9,29.9,10.2c10.1,4.3,21.5,5.1,33.3,4.3c3.1-0.2,6.2-0.5,9.3-1
		c11.8-2,21-7.1,32.8-8.8c9.8-1.4,18.8-0.1,28.5,2.2c8.6,2,15.7,6.6,22.8,10.7c2.8,1.6,5.6,3.3,8.5,4.5c14.5,6.1,31.4,4.5,48.1,0.5
		c0.9-0.2,1.9-0.2,2.9-0.2c19.8-11,41.7-2.9,61.6-7.3c1-0.2,1,0.8,2.1,1.5c1.8,1.1,3.9,0.7,5,1.5c2.7,1.8,5.5,3.3,8.3,4.6
		c14.3,7,29.4,10.6,44.2,9.2c13.1-1.2,23.5-6.8,36.8-7.1c8.5-0.2,16.3,0.4,25.1,2.2c11.7,2.4,20.1,8.5,31.2,11.3
		c16.8,4.1,36.8,3.6,51.6-6c1.1-0.7,1-1,2.1-1.8c2.8-2.1,6.1-2.5,9-3.6c6.4-2.6,12.5-5,18.8-5.9c8.4-1.2,16.8-0.9,25,1
		c11,2.6,20,8.8,30.9,11.6c13.5,3.4,26.4,2.5,38.8-2.5c18-7.2,39.5-18.9,60-21.9"/>
	<path class="st0" d="M-32.7,340.9c14.2-3.5,29.5,3.3,43.7,8.2c15.3,5.2,31.4,4,46.5-0.9c2.6-0.8,6.1-0.4,8.4-2.2
		c1-0.8,1.1-1,2.1-1.7c2.9-2,6-2.9,9-4.6c12.5-7.3,25.6-7.7,39.2-8.5c5.8-0.3,11.3,1.7,17,3.9c5.4,2.1,10.9,4.2,16.9,5.5
		c18.6,3.9,36.7,4.4,53.5-3.6c9.9-4.7,20.7-6.5,31.4-6.5c4.2,0,8.3,0.1,12.3,0.5c10.9,1.1,19.9,5.7,29.9,9.8
		c10.1,4.1,21.4,4.8,33.3,4.1c3.1-0.2,6.2-0.5,9.3-1c11.8-1.9,21-6.8,32.8-8.4c9.8-1.3,18.8,0.1,28.5,2.4c8.6,2,15.7,6.5,22.8,10.6
		c2.8,1.6,5.6,3.2,8.6,4.4c14.5,5.9,31.3,4.2,48,0.1c0.9-0.2,1.9-0.2,2.9-0.3c19.7-11,41.7-3.4,61.5-7.7c1-0.2,1,0.8,2.1,1.4
		c1.8,1,3.9,0.7,5,1.4c2.7,1.8,5.5,3.2,8.3,4.5c14.3,6.9,29.3,10.6,44,9.5c13-1,23.4-6.7,36.5-6.3c8.5,0.2,16.2,0.6,25,2.4
		c11.7,2.4,20.1,8.3,31.2,11c16.8,4,36.8,3.4,51.6-6.1c1.1-0.7,1.1-1,2.1-1.7c2.8-2,6.1-2.4,9-3.6c6.4-2.5,12.5-4.9,18.8-5.8
		c8.4-1.2,16.8-0.9,25,1.1c11,2.6,20,8.8,30.9,11.5c13.5,3.4,26.3,2.5,38.7-2.3c18.4-7.2,40.6-19,61.5-22"/>
	<path class="st0" d="M-32.2,333.3c14.2-3.4,29.4,3.3,43.6,8.2c15.3,5.2,31.4,4.1,46.5-0.6c2.6-0.8,6.2-0.3,8.5-2.1
		c1-0.8,1.1-0.9,2.1-1.7c2.9-2,6-2.8,9-4.6c12.5-7.3,25.4-7.9,39-8.8c5.8-0.4,11.3,1.6,17,3.7c5.4,2,10.9,4.2,16.9,5.4
		c18.6,3.9,36.7,4.4,53.5-3.3c9.9-4.5,20.7-6.2,31.4-6.2c4.2,0,8.3,0.1,12.3,0.5c10.9,1,19.9,5.4,29.9,9.3
		c10.1,3.9,21.4,4.6,33.3,3.9c3.1-0.2,6.2-0.4,9.3-0.9c11.7-1.9,21-6.6,32.8-8c9.8-1.2,18.8,0.2,28.4,2.5c8.6,2,15.7,6.5,22.8,10.5
		c2.8,1.6,5.6,3.2,8.6,4.3c14.4,5.7,31.2,3.9,47.9-0.3c0.9-0.2,1.9-0.2,2.9-0.3c19.7-11.1,41.6-3.8,61.3-8.1c1-0.2,1,0.8,2.1,1.4
		c1.8,1,3.9,0.6,5,1.4c2.7,1.7,5.5,3.1,8.4,4.4c14.3,6.8,29.2,10.7,43.9,9.8c12.9-0.7,23.2-6.1,36.3-5.6c8.4,0.3,16.2,0.7,24.9,2.5
		c11.6,2.3,20.1,8.1,31.2,10.7c16.8,3.8,36.7,3.2,51.6-6.2c1.1-0.7,1.1-1,2.1-1.7c2.8-2,6.1-2.4,9.1-3.5c6.4-2.5,12.5-4.9,18.8-5.7
		c8.4-1.1,16.8-0.8,25,1.1c11,2.6,20,8.7,30.9,11.5c13.4,3.4,26.2,2.6,38.7-2.2c18.7-7.1,41.7-19.1,62.9-22.1"/>
	<path class="st0" d="M-31.7,325.8c14.1-3.4,29.3,3.3,43.6,8.2c15.3,5.2,31.4,4.1,46.4-0.3c2.7-0.8,6.3-0.3,8.7-2.1
		c1-0.8,1.1-0.9,2.1-1.6c2.9-2,6-2.8,9-4.6c12.4-7.3,25.3-8.2,38.9-9.2c5.7-0.4,11.3,1.5,17,3.6c5.4,2,10.9,4.1,16.9,5.3
		c18.5,3.8,36.6,4.5,53.4-2.9c9.9-4.4,20.8-6,31.4-6c4.2,0,8.3,0.1,12.3,0.4c10.9,1,19.9,5.1,29.9,8.9c10.1,3.8,21.4,4.3,33.2,3.6
		c3.1-0.2,6.2-0.4,9.3-0.9c11.7-1.8,21-6.3,32.8-7.7c9.7-1.1,18.8,0.3,28.4,2.7c8.6,2.1,15.8,6.5,22.8,10.3c2.8,1.5,5.6,3.1,8.6,4.2
		c14.4,5.5,31.1,3.6,47.8-0.7c0.9-0.2,1.9-0.2,2.9-0.3c19.7-11.1,41.6-4.2,61.1-8.6c1-0.2,1,0.7,2.1,1.3c1.8,1,3.8,0.6,5,1.3
		c2.7,1.7,5.6,3,8.4,4.3c14.3,6.6,29.2,11.8,43.7,10.2c12.7-1.4,23.1-5.1,36-4.8c8.4,0.2,16.1,0.9,24.8,2.6
		c11.6,2.3,20.1,7.9,31.2,10.4c16.7,3.7,36.6,3,51.5-6.3c1.1-0.7,1.1-1,2.1-1.7c2.8-2,6.1-2.4,9.1-3.5c6.4-2.5,12.5-4.8,18.8-5.7
		c8.4-1.1,16.8-0.8,24.9,1.1c11,2.6,20,8.6,30.9,11.4c13.4,3.4,26.2,2.6,38.7-2c19.1-7,42.7-19.1,64.4-22.1"/>
	<path class="st0" d="M-31.1,318.2c14-3.3,29.3,3.4,43.6,8.2c15.3,5.2,31.3,4.2,46.4,0c2.7-0.8,6.4-0.2,8.8-2c1-0.7,1.1-0.9,2.1-1.6
		c2.9-2,6-2.8,9-4.5c12.4-7.2,25.2-8.4,38.7-9.5c5.7-0.5,11.2,1.3,17,3.4c5.4,1.9,10.9,4,16.9,5.2c18.5,3.8,36.6,4.6,53.4-2.6
		c9.9-4.2,20.8-5.8,31.4-5.8c4.2,0,8.3,0.1,12.3,0.4c10.9,0.9,19.9,4.9,29.9,8.5c10.1,3.6,21.3,4.1,33.2,3.4
		c3.1-0.2,6.2-0.4,9.3-0.8c11.7-1.7,21-6.1,32.7-7.3c9.7-1,18.7,0.5,28.3,2.8c8.6,2.1,15.8,6.4,22.8,10.2c2.8,1.5,5.6,3,8.6,4.1
		c14.4,5.3,31,3.2,47.7-1.1c0.9-0.2,1.9-0.2,2.9-0.3c19.7-11.1,41.6-4.6,61-9c0.9-0.2,1.1,0.7,2.1,1.3c1.8,1,3.8,0.6,5,1.2
		c2.7,1.6,5.6,2.9,8.4,4.2c14.3,6.5,29.1,11.8,43.5,10.5c12.6-1.2,22.9-4.5,35.8-4c8.3,0.3,16,1.1,24.7,2.8
		c11.6,2.3,20.1,7.7,31.3,10.1c16.7,3.5,36.5,2.8,51.5-6.4c1.1-0.7,1.1-1,2.1-1.7c2.9-2,6.1-2.3,9.1-3.5c6.4-2.4,12.5-4.7,18.8-5.6
		c8.4-1.1,16.8-0.7,24.9,1.2c11,2.6,20,8.6,30.8,11.4c13.4,3.4,26.1,2.7,38.7-1.8c19.4-7,43.8-19.2,65.8-22.2"/>
	<path class="st0" d="M-30.6,310.6c13.9-3.3,29.2,3.4,43.5,8.2c15.3,5.2,31.3,4.3,46.3,0.3c2.8-0.7,6.5-0.2,8.9-1.9
		c1-0.7,1.1-0.9,2.2-1.6c2.9-1.9,6-2.8,9.1-4.5c12.4-7.2,25.1-8.6,38.5-9.9c5.7-0.5,11.2,1.2,17,3.2c5.4,1.9,10.9,3.9,16.9,5.1
		c18.4,3.8,36.5,4.7,53.3-2.2c10-4.1,20.8-5.5,31.4-5.5c4.2,0,8.3,0.1,12.3,0.4c10.9,0.8,19.9,4.6,29.9,8.1
		c10.1,3.4,21.3,3.8,33.2,3.2c3.1-0.2,6.2-0.4,9.3-0.8c11.6-1.6,21-5.8,32.7-7c9.7-0.9,18.7,0.6,28.3,2.9
		c8.5,2.1,15.8,6.4,22.9,10.1c2.8,1.5,5.7,3,8.6,4c14.4,5.1,31,2.9,47.6-1.6c0.9-0.3,1.9-0.2,2.9-0.4c19.6-11.1,41.5-5.1,60.8-9.5
		c0.9-0.2,1.1,0.7,2.1,1.2c1.8,0.9,3.8,0.5,5,1.2c2.7,1.5,5.6,2.8,8.4,4.1c14.3,6.4,29,11.8,43.3,10.8c12.6-0.9,22.7-3.9,35.5-3.3
		c8.3,0.4,15.9,1.2,24.6,2.9c11.5,2.2,20.2,7.5,31.3,9.8c16.7,3.4,36.5,2.5,51.4-6.6c1.1-0.7,1.1-0.9,2.2-1.6
		c2.9-1.9,6.1-2.3,9.1-3.4c6.4-2.4,12.5-4.7,18.9-5.5c8.4-1.1,16.7-0.7,24.9,1.2c11,2.6,20,8.5,30.8,11.3c13.3,3.4,26,2.8,38.6-1.6
		c19.7-6.9,44.9-19.3,67.3-22.3"/>
	<path class="st0" d="M-30.1,303.1c13.9-3.2,29.1,3.4,43.5,8.3c15.3,5.2,31.3,4.4,46.3,0.6c2.9-0.7,6.6-0.1,9.1-1.8
		c1-0.7,1.1-0.9,2.2-1.6c2.9-1.9,6-2.7,9.1-4.5c12.4-7.2,25-8.9,38.3-10.2c5.7-0.6,11.2,1.1,16.9,3c5.4,1.9,10.9,3.8,16.9,5.1
		c18.4,3.8,36.4,4.7,53.3-1.9c10-3.9,20.9-5.3,31.4-5.3c4.2,0,8.3,0.1,12.3,0.3c10.9,0.8,19.9,4.4,29.9,7.6c10,3.3,21.2,3.6,33.1,3
		c3.1-0.2,6.2-0.4,9.3-0.8c11.6-1.6,21-5.6,32.7-6.6c9.7-0.8,18.7,0.7,28.2,3.1c8.5,2.1,15.8,6.3,22.9,10c2.8,1.5,5.7,2.9,8.6,3.9
		c14.4,5,30.9,2.6,47.5-2c0.9-0.3,1.9-0.3,2.9-0.4c19.6-11.1,41.5-5.5,60.7-9.9c0.9-0.2,1.1,0.7,2.2,1.2c1.8,0.9,3.8,0.5,5,1.1
		c2.8,1.5,5.6,2.8,8.4,4c14.4,6.2,28.9,11.9,43.1,11.1c12.5-0.7,22.6-3.3,35.3-2.5c8.2,0.5,15.8,1.4,24.5,3
		c11.5,2.2,20.2,7.3,31.3,9.5c16.7,3.2,36.4,2.3,51.4-6.7c1.1-0.6,1.1-0.9,2.2-1.6c2.9-1.9,6.1-2.3,9.1-3.4
		c6.4-2.4,12.5-4.6,18.9-5.4c8.4-1,16.7-0.6,24.9,1.3c11,2.6,20,8.5,30.8,11.3c13.3,3.4,25.9,2.8,38.6-1.5
		c20.1-6.8,45.9-19.4,68.7-22.4"/>
	<path class="st0" d="M-29.5,295.5c13.8-3.2,29.1,3.4,43.5,8.3c15.3,5.2,31.3,4.5,46.2,0.9c2.9-0.7,6.7-0.1,9.2-1.7
		c1-0.7,1.2-0.9,2.2-1.5c2.9-1.9,6.1-2.7,9.1-4.4c12.4-7.1,24.8-9.1,38.1-10.6c5.6-0.6,11.1,0.9,16.9,2.9c5.4,1.8,10.9,3.8,16.9,5
		c18.3,3.7,36.4,4.8,53.2-1.6c10-3.8,20.9-5,31.4-5c4.2,0,8.3,0.1,12.3,0.3c10.9,0.7,19.9,4.1,29.9,7.2s21.2,3.3,33.1,2.7
		c3.1-0.2,6.2-0.3,9.2-0.7c11.6-1.5,21-5.3,32.7-6.2c9.7-0.8,18.7,0.9,28.2,3.2c8.5,2.1,15.8,6.3,22.9,9.9c2.8,1.4,5.7,2.8,8.7,3.8
		c14.3,4.8,30.8,2.3,47.4-2.4c0.9-0.3,1.9-0.3,2.8-0.4c19.6-11.1,41.5-5.9,60.5-10.4c0.9-0.2,1.1,0.6,2.2,1.1c1.8,0.9,3.8,0.5,5,1.1
		c2.8,1.4,5.6,2.7,8.5,3.9c14.4,6.1,28.8,10.8,43,11.4c12.4,0.5,22.4-2.7,35-1.7c8.2,0.6,15.8,1.6,24.4,3.2
		c11.5,2.1,20.2,7.1,31.3,9.2c16.7,3.1,36.3,2.1,51.3-6.8c1.1-0.6,1.1-0.9,2.2-1.6c2.9-1.9,6.1-2.3,9.1-3.3
		c6.4-2.3,12.5-4.5,18.9-5.3c8.4-1,16.7-0.6,24.9,1.3c11,2.6,20,8.4,30.8,11.2c13.2,3.4,25.9,2.9,38.6-1.3
		c20.4-6.7,47-19.5,70.2-22.5"/>
	<path class="st0" d="M-29,287.9c13.7-3.1,29,3.4,43.4,8.3c15.3,5.2,31.3,4.6,46.2,1.3c3-0.7,6.8,0,9.3-1.7c1-0.7,1.2-0.8,2.2-1.5
		c2.9-1.9,6.1-2.7,9.1-4.4c12.3-7.1,24.7-9.4,38-10.9c5.6-0.7,11.1,0.8,16.9,2.7c5.4,1.8,10.9,3.7,16.9,4.9
		c18.3,3.7,36.3,4.9,53.2-1.2c10-3.6,20.9-4.8,31.3-4.8c4.2,0,8.3,0,12.3,0.3c10.9,0.6,19.9,3.9,29.8,6.8c10,2.9,21.2,3.1,33.1,2.5
		c3.1-0.2,6.1-0.3,9.2-0.7c11.5-1.4,21-5.1,32.7-5.9c9.6-0.7,18.6,1,28.1,3.4c8.5,2.1,15.8,6.2,22.9,9.7c2.8,1.4,5.7,2.7,8.7,3.7
		c14.3,4.6,30.7,2,47.3-2.8c0.9-0.3,1.9-0.3,2.8-0.4c19.5-11.1,41.4-6.3,60.4-10.8c0.9-0.2,1.1,0.6,2.2,1.1c1.8,0.8,3.8,0.4,5,1
		c2.8,1.4,5.6,2.6,8.5,3.8c14.4,6,28.7,10.9,42.8,11.8c12.3,0.8,22.3-2.1,34.8-1c8.1,0.7,15.7,1.7,24.3,3.3
		c11.4,2.1,20.2,6.9,31.4,8.9c16.7,2.9,36.2,1.9,51.3-6.9c1.1-0.6,1.2-0.9,2.2-1.6c2.9-1.9,6.1-2.2,9.1-3.3
		c6.4-2.3,12.5-4.4,18.9-5.2c8.4-1,16.7-0.6,24.8,1.3c11,2.6,20,8.4,30.8,11.2c13.2,3.4,25.8,2.9,38.6-1.1
		c20.8-6.6,48-19.6,71.6-22.6"/>
	<path class="st0" d="M-28.5,280.4c13.6-3,28.9,3.4,43.4,8.3c15.3,5.2,31.3,4.7,46.1,1.6c3.1-0.6,6.9,0.1,9.5-1.6
		c1-0.6,1.2-0.8,2.2-1.5c3-1.8,6.1-2.6,9.1-4.4c12.3-7.1,24.5-10.7,37.8-11.3c5.6-0.2,11.1,0.7,16.9,2.5c5.4,1.7,10.9,3.6,16.9,4.8
		c18.2,3.7,36.3,5,53.2-0.9c10.1-3.5,20.9-4.6,31.3-4.6c4.2,0,8.3,0,12.2,0.2c10.9,0.6,19.9,3.6,29.8,6.4c10,2.8,21.1,2.8,33,2.3
		c3.1-0.2,6.1-0.3,9.2-0.7c11.5-1.3,21-4.8,32.7-5.5c9.6-0.6,18.6,1.1,28.1,3.5c8.5,2.1,15.8,6.2,22.9,9.6c2.8,1.4,5.7,2.7,8.7,3.6
		c14.3,4.4,30.6,1.7,47.2-3.2c0.9-0.3,1.9-0.3,2.8-0.5c19.5-11.1,41.4-6.8,60.2-11.3c0.9-0.2,1.1,0.6,2.2,1.1c1.8,0.8,3.8,0.4,5,1
		c2.8,1.3,5.7,2.5,8.5,3.7c14.4,5.9,28.6,10.9,42.6,12.1c12.1,1,22.1-1.5,34.5-0.2c8.1,0.8,15.6,1.9,24.2,3.4
		c11.4,2,20.2,6.7,31.4,8.6c16.7,2.7,36.2,1.7,51.3-7c1.1-0.6,1.2-0.9,2.2-1.5c2.9-1.8,6.1-2.2,9.1-3.3c6.4-2.3,12.5-4.4,18.9-5.1
		c8.4-1,16.7-0.5,24.8,1.4c11,2.6,20,8.3,30.8,11.1c13.2,3.4,25.8,3,38.5-1c21.1-6.6,49.1-19.7,73.1-22.7"/>
	<path class="st0" d="M-28,272.8c13.6-3,28.8,3.4,43.3,8.3c15.3,5.2,31.3,4.8,46.1,1.9c3.1-0.6,7,0.1,9.6-1.5c1-0.6,1.2-0.8,2.2-1.4
		c3-1.8,6.1-2.6,9.1-4.3c12.3-7.1,24.4-10.9,37.6-11.6c5.6-0.3,11.1,0.5,16.9,2.3c5.4,1.7,10.9,3.5,16.9,4.7
		c18.1,3.7,36.2,5,53.1-0.5c10.1-3.3,21-4.3,31.3-4.3c4.2,0,8.2,0,12.2,0.2c10.8,0.5,19.9,3.3,29.8,5.9c10,2.6,21.1,2.6,33,2.1
		c3-0.1,6.1-0.3,9.2-0.6c11.5-1.3,21-4.6,32.6-5.1c9.6-0.5,18.6,1.3,28,3.6c8.5,2.1,15.8,6.1,23,9.5c2.8,1.3,5.7,2.6,8.7,3.5
		c14.3,4.2,30.6,1.4,47.1-3.6c0.9-0.3,1.9-0.2,2.8-0.5c21.1-7.6,41.3-7.2,60.1-11.7c0.9-0.2,1.2,0.6,2.2,1c1.8,0.8,3.8,0.4,5,0.9
		c2.8,1.3,5.7,2.4,8.5,3.6c14.4,5.7,28.5,10.9,42.4,12.4c12,1.3,21.9-0.9,34.3,0.6c8,0.9,15.5,2.1,24.1,3.6
		c11.4,2,20.3,6.5,31.4,8.2c16.7,2.6,36.1,1.5,51.2-7.1c1.1-0.6,1.2-0.9,2.2-1.5c2.9-1.8,6.1-2.2,9.1-3.2c6.4-2.2,12.6-4.3,18.9-5
		c8.4-0.9,16.7-0.5,24.8,1.4c10.9,2.6,20,8.3,30.8,11.1c13.1,3.4,25.7,3.1,38.5-0.8c21.5-6.5,50.2-19.8,74.5-22.8"/>
	<path class="st0" d="M-27.4,265.2c13.5-2.9,28.8,3.4,43.3,8.4c15.3,5.2,31.3,4.9,46,2.2c3.2-0.6,7.1,0.2,9.8-1.4
		c1-0.6,1.2-0.8,2.2-1.4c3-1.8,6.1-2.6,9.1-4.3c12.3-7,24.2-11.1,37.4-12c5.6-0.4,11,0.4,16.9,2.2c5.4,1.6,10.9,3.4,16.9,4.6
		c18.1,3.6,36.2,5.1,53.1-0.2c10.1-3.2,21-4.1,31.3-4.1c4.2,0,8.2,0,12.2,0.2c10.8,0.4,19.9,3.1,29.8,5.5c10,2.4,21.1,2.3,33,1.8
		c3-0.1,6.1-0.3,9.2-0.6c11.4-1.2,21-4.3,32.6-4.8c9.6-0.4,18.6,1.4,28,3.8c8.5,2.1,15.8,6.1,23,9.4c2.9,1.3,5.7,2.5,8.7,3.4
		c14.2,4,30.5,1.1,47-4c0.9-0.3,1.9-0.2,2.8-0.5c21-7.7,41.3-7.6,59.9-12.2c0.9-0.2,1.2,0.5,2.2,1c1.8,0.8,3.8,0.3,5,0.9
		c2.8,1.2,5.7,2.3,8.5,3.4c14.4,5.6,28.4,11,42.2,12.7c11.9,1.5,21.8-0.3,34,1.3c8,1,15.4,2.2,24,3.7c11.3,1.9,20.3,6.3,31.4,7.9
		c16.7,2.4,36,1.2,51.2-7.2c1-0.6,1.2-0.9,2.2-1.5c2.9-1.8,6.1-2.2,9.1-3.2c6.4-2.2,12.6-4.2,18.9-4.9c8.4-0.9,16.7-0.4,24.8,1.4
		c10.9,2.6,20.1,8.2,30.8,11c13.1,3.4,25.6,3.1,38.5-0.6c21.8-6.4,51.2-19.9,76-22.9"/>
	<path class="st0" d="M-26.9,257.7c13.4-2.9,28.7,3.4,43.3,8.4c15.3,5.2,31.3,5,46,2.5c3.3-0.6,7.2,0.2,9.9-1.3
		c1-0.6,1.2-0.8,2.2-1.4c3-1.7,6.1-2.6,9.1-4.3c12.3-7,24.1-11.3,37.2-12.3c5.5-0.4,11,0.3,16.9,2c5.4,1.6,10.9,3.4,16.9,4.6
		c18,3.6,36.1,5.2,53,0.2c10.2-3,21-3.8,31.3-3.8c4.2,0,8.2,0,12.2,0.1c10.8,0.4,19.9,2.8,29.8,5.1c10,2.3,21,2.1,32.9,1.6
		c3-0.1,6.1-0.2,9.2-0.5c11.4-1.1,21-4.1,32.6-4.4c9.6-0.3,18.5,1.5,27.9,3.9c8.5,2.1,15.8,6.1,23,9.3c2.9,1.3,5.7,2.5,8.8,3.3
		c14.2,3.9,30.4,0.8,46.9-4.5c0.9-0.3,1.9-0.2,2.8-0.5c21-7.8,41.2-8,59.8-12.6c0.9-0.2,1.2,0.5,2.2,0.9c1.8,0.7,3.8,0.3,5,0.8
		c2.8,1.2,5.7,2.3,8.6,3.3c14.5,5.5,28.3,11,42.1,13c11.8,1.8,21.6,0.3,33.8,2.1c7.9,1.1,15.4,2.4,23.9,3.8
		c11.3,1.9,20.3,6.1,31.4,7.6c16.7,2.3,35.9,1,51.1-7.3c1-0.6,1.2-0.9,2.2-1.5c2.9-1.8,6.1-2.1,9.1-3.1c6.4-2.2,12.6-4.2,18.9-4.9
		c8.4-0.9,16.7-0.4,24.8,1.5c10.9,2.6,20.1,8.1,30.7,11c13,3.4,25.6,3.2,38.5-0.5c22.2-6.3,52.3-20,77.4-23"/>
	<path class="st0" d="M-26.4,250.1c13.3-2.8,28.6,3.4,43.2,8.4c15.3,5.2,31.3,5.1,46,2.8c3.3-0.5,7.3,0.3,10-1.3
		c1-0.6,1.2-0.8,2.3-1.3c3-1.7,6.1-2.5,9.1-4.2c12.3-7,24-11.5,37.1-12.7c5.5-0.5,11,0.1,16.8,1.8c5.4,1.5,10.9,3.3,16.9,4.5
		c18,3.6,36,5.3,53,0.5c10.2-2.9,21-3.6,31.3-3.6c4.2,0,8.2,0,12.2,0.1c10.8,0.3,19.9,2.6,29.8,4.7c10,2.1,21,1.9,32.9,1.4
		c3-0.1,6.1-0.2,9.2-0.5c11.4-1,21-3.8,32.6-4.1c9.5-0.2,18.5,1.7,27.9,4.1c8.5,2.2,15.9,6,23,9.1c2.9,1.3,5.8,2.4,8.8,3.2
		c14.2,3.7,30.3,0.5,46.8-4.9c0.9-0.3,1.9-0.2,2.8-0.6c20.9-7.9,41.2-8.5,59.6-13c0.9-0.2,1.2,0.5,2.2,0.9c1.8,0.7,3.7,0.3,5,0.8
		c2.8,1.1,5.7,2.2,8.6,3.2c14.5,5.4,28.2,11,41.9,13.4c11.7,2,21.5,1,33.5,2.9c7.8,1.2,15.3,2.6,23.8,4c11.3,1.9,20.3,5.9,31.5,7.3
		c16.6,2.1,35.9,0.8,51.1-7.4c1-0.6,1.2-0.8,2.2-1.4c2.9-1.7,6.1-2.1,9.1-3.1c6.4-2.1,12.6-4.1,18.9-4.8c8.4-0.9,16.7-0.4,24.7,1.5
		c10.9,2.6,20.1,8.1,30.7,10.9c13,3.4,25.5,3.3,38.4-0.3c22.5-6.2,53.3-20.1,78.9-23.1"/>
	<path class="st0" d="M-25.8,242.5c13.3-2.8,28.5,3.4,43.2,8.4c15.3,5.2,31.3,5.2,45.9,3.1c3.4-0.5,7.4,0.3,10.2-1.2
		c1-0.5,1.3-0.7,2.3-1.3c3-1.7,6.1-2.5,9.1-4.2c12.2-6.9,23.8-11.7,36.9-13c5.5-0.6,10.9,0,16.8,1.6c5.4,1.5,10.9,3.2,16.9,4.4
		c17.9,3.6,36,5.3,52.9,0.8c10.2-2.7,21.1-3.4,31.3-3.4c4.2,0,8.2,0,12.2,0.1c10.8,0.2,19.9,2.3,29.8,4.2c10,1.9,20.9,1.6,32.9,1.2
		c3-0.1,6.1-0.2,9.2-0.5c11.3-1,21-3.9,32.6-3.7c9.5,0.2,18.5,1.8,27.8,4.2c8.5,2.2,15.9,6,23,9c2.9,1.2,5.8,2.3,8.8,3.1
		c14.2,3.5,30.2,0.2,46.7-5.3c0.9-0.3,1.9-0.2,2.8-0.6c20.9-8,41.1-8.9,59.5-13.5c0.9-0.2,1.2,0.4,2.2,0.8c1.8,0.7,3.7,0.2,5,0.7
		c2.9,1.1,5.7,2.1,8.6,3.1c14.5,5.2,28.2,11.1,41.7,13.7c11.6,2.2,21.3,1.6,33.3,3.6c7.8,1.4,15.2,2.7,23.7,4.1
		c11.2,1.8,20.3,5.7,31.5,7c16.6,2,35.8,0.6,51.1-7.6c1-0.5,1.2-0.8,2.3-1.4c2.9-1.7,6.1-2.1,9.1-3c6.4-2.1,12.6-4,18.9-4.7
		c8.5-0.9,16.7-0.3,24.7,1.5c10.9,2.5,20.1,8,30.7,10.9c12.9,3.4,25.4,3.3,38.4-0.1c22.9-6.1,54.4-20.2,80.3-23.2"/>
	<path class="st0" d="M-25.3,235c13.2-2.7,28.5,3.4,43.2,8.4c15.3,5.2,31.3,5.4,45.9,3.4c3.5-0.5,7.5,0.4,10.3-1.1
		c1-0.5,1.3-0.7,2.3-1.3c3-1.7,6.1-2.5,9.1-4.2c12.2-6.9,23.7-11.9,36.7-13.4c5.5-0.6,10.9-0.1,16.8,1.4c5.4,1.4,10.9,3.1,16.9,4.3
		c17.9,3.5,35.9,5.4,52.9,1.2c10.2-2.6,21.1-3.1,31.3-3.1c4.2,0,8.2,0,12.2,0c10.8,0.2,19.9,2.1,29.8,3.8c10,1.8,20.9,1.4,32.9,0.9
		c3-0.1,6.1-0.2,9.2-0.4c11.3-0.9,21-3.6,32.5-3.3c9.5,0.2,18.5,1.9,27.8,4.3c8.5,2.2,15.9,5.9,23,8.9c2.9,1.2,5.8,2.3,8.8,3
		c14.1,3.3,30.2-0.1,46.6-5.7c0.9-0.3,1.9-0.3,2.8-0.6c20.8-8.1,41.1-9.3,59.3-13.9c0.9-0.2,1.2,0.4,2.2,0.8c1.8,0.6,3.7,0.2,5,0.7
		c2.9,1,5.7,2,8.6,3c14.5,5.1,28.1,11.1,41.5,14c11.5,2.5,21.1,2.2,33,4.4c7.7,1.5,15.1,2.9,23.6,4.3c11.2,1.8,20.3,5.5,31.5,6.7
		c16.6,1.8,35.7,0.4,51-7.7c1-0.5,1.3-0.8,2.3-1.4c2.9-1.7,6.1-2,9.1-3c6.4-2.1,12.6-4,18.9-4.6c8.5-0.8,16.7-0.3,24.7,1.6
		c10.9,2.5,20.1,8,30.7,10.8c12.9,3.5,25.4,3.4,38.4,0c23.2-6,55.5-20.3,81.8-23.3"/>
	<path class="st0" d="M-24.8,227.4c13.1-2.7,28.4,3.4,43.1,8.4c15.3,5.2,31.3,5.5,45.8,3.7c3.5-0.4,7.6,0.5,10.4-1
		c1-0.5,1.3-0.7,2.3-1.3c3-1.6,6.1-2.5,9.1-4.1c12.2-6.9,23.6-12.1,36.5-13.7c5.4-0.7,10.9-0.3,16.8,1.3c5.3,1.4,10.9,3.1,16.9,4.2
		c17.8,3.5,35.9,5.5,52.8,1.5c10.3-2.4,21.1-2.9,31.3-2.9c4.2,0,8.2-0.1,12.2,0c10.8,0.4,19.9,1.8,29.8,3.4
		c10,1.6,20.9,1.1,32.8,0.7c3-0.1,6.1-0.2,9.2-0.4c11.3-0.8,21-3.4,32.5-3c9.5,0.3,18.4,2.1,27.7,4.5c8.5,2.2,15.9,5.9,23.1,8.8
		c2.9,1.2,5.8,2.2,8.8,2.9c14.1,3.1,30.1-0.4,46.5-6.1c0.9-0.3,1.9-0.3,2.8-0.6c20.7-8.2,41-9.8,59.1-14.4c0.9-0.2,1.3,0.4,2.3,0.7
		c1.8,0.6,3.7,0.2,5,0.6c2.9,1,5.8,1.9,8.6,2.9c14.5,5,28,11.1,41.3,14.3c11.4,2.7,21,2.8,32.8,5.2c7.7,1.6,15.1,3.1,23.5,4.4
		c11.1,1.7,20.4,5.3,31.5,6.4c16.6,1.7,35.6,0.1,51-7.8c1-0.5,1.3-0.8,2.3-1.4c2.9-1.6,6.1-2,9.1-3c6.4-2,12.6-3.9,18.9-4.5
		c8.5-0.8,16.7-0.2,24.7,1.6c10.9,2.5,20.1,7.9,30.7,10.8c12.9,3.5,25.3,3.5,38.4,0.2c23.6-5.9,56.5-20.4,83.2-23.4"/>
	<path class="st0" d="M-24.3,219.8c13-2.6,28.3,3.4,43.1,8.5c15.3,5.2,31.4,5.6,45.8,4c3.6-0.4,7.7,0.5,10.6-0.9
		c1-0.5,1.3-0.7,2.3-1.2c3-1.6,6.1-2.4,9.1-4.1c12.2-6.9,23.4-12.3,36.3-14.1c5.4-0.7,10.8-0.4,16.8,1.1c5.3,1.3,10.9,3,16.9,4.1
		c17.8,3.5,35.8,5.6,52.8,1.9c10.3-2.3,21.1-2.7,31.2-2.6c4.2,0,8.2-0.1,12.1,0c10.8,0.3,19.9,1.5,29.8,3c9.9,1.4,20.8,0.9,32.8,0.5
		c3-0.1,6.1-0.2,9.2-0.4c11.2-0.7,21-2.8,32.5-2.6c9.5,0.2,18.4,2.2,27.7,4.6c8.5,2.2,15.9,5.8,23.1,8.7c2.9,1.1,5.8,2.1,8.8,2.8
		c14.1,3,30-0.7,46.4-6.5c0.9-0.3,1.9-0.3,2.7-0.7c20.7-8.3,40.9-10.2,59-14.8c0.9-0.2,1.3,0.4,2.3,0.7c1.8,0.6,3.7,0.1,5,0.6
		c2.9,0.9,5.8,1.8,8.7,2.8c14.5,4.8,27.9,11.1,41.1,14.6c11.3,3,20.8,3.4,32.5,5.9c7.6,1.7,15,3.3,23.4,4.5
		c11.1,1.7,20.4,5.1,31.5,6.1c16.6,1.5,35.5-0.1,50.9-7.9c1-0.5,1.3-0.8,2.3-1.3c2.9-1.6,6.1-2,9.1-2.9c6.4-2,12.6-3.8,18.9-4.4
		c8.5-0.8,16.7-0.2,24.6,1.7c10.9,2.5,20.1,7.9,30.7,10.7c12.8,3.5,25.3,3.5,38.3,0.4c23.9-5.8,57.6-20.5,84.7-23.5"/>
	<path class="st0" d="M-23.7,212.3c13-2.6,28.2,3.4,43.1,8.5c15.3,5.2,31.4,2.7,45.7,4.3c3.6,0.4,7.7,0.6,10.7-0.9
		c1-0.5,1.3-0.7,2.3-1.2c3.1-1.6,6.2-2.4,9.1-4c12.2-6.8,23.3-12.5,36.2-14.4c5.4-0.8,10.8-0.5,16.8,0.9c5.3,1.3,10.9,2.9,16.9,4.1
		c17.7,3.5,35.8,5.7,52.7,2.2c10.3-2.1,21.2-2.4,31.2-2.4c4.2,0,8.2-0.2,12.1-0.1c10.8,0.2,19.9,1.3,29.8,2.5
		c9.9,1.3,20.8,0.6,32.8,0.3c3-0.1,6.1-0.1,9.2-0.3c11.2-0.7,21-2.6,32.5-2.3c9.4,0.3,18.4,2.3,27.6,4.7c8.5,2.2,15.9,5.8,23.1,8.6
		c2.9,1.1,5.8,2,8.9,2.6c14,2.8,29.9-1.1,46.3-6.9c0.9-0.3,1.9-0.3,2.7-0.7c20.6-8.4,40.9-10.6,58.8-15.3c0.9-0.2,1.3,0.3,2.3,0.6
		c1.8,0.6,3.7,0.1,5,0.5c2.9,0.9,5.8,1.7,8.7,2.7c14.5,4.7,27.8,11.2,41,14.9c11.2,3.2,20.7,4,32.3,6.7c7.6,1.8,14.9,3.4,23.3,4.7
		c11.1,1.6,20.4,4.9,31.6,5.8c16.6,1.4,35.5-0.3,50.9-8c1-0.5,1.3-0.8,2.3-1.3c2.9-1.6,6.1-2,9.1-2.9c6.4-2,12.6-3.7,18.9-4.3
		c8.5-0.8,16.7-0.2,24.6,1.7c10.9,2.5,20.1,7.8,30.7,10.7c12.8,3.5,25.2,3.6,38.3,0.5c24.3-5.7,58.6-20.6,86.1-23.6"/>
	<path class="st0" d="M-23.2,204.7c12.9-2.5,28.2,3.4,43,8.5c15.3,5.2,31.4,2.9,45.7,4.6c3.7,0.5,7.8,0.6,10.9-0.8
		c1-0.5,1.3-0.7,2.3-1.2c3.1-1.5,6.2-2.4,9.1-4c12.1-6.8,23.1-12.7,36-14.8c5.4-0.9,10.8-0.6,16.8,0.7c5.3,1.2,10.9,2.8,16.9,4
		c17.6,3.4,35.7,5.7,52.7,2.5c10.4-2,21.2-2.2,31.2-2.2c4.2,0,8.2-0.2,12.1-0.1c10.8,0.1,19.9,1,29.7,2.1c9.9,1.1,20.7,0.4,32.7,0
		c3-0.1,6.1-0.1,9.1-0.3c11.2-0.6,21-2.3,32.5-1.9c9.4,0.4,18.4,2.5,27.6,4.9c8.5,2.2,15.9,5.8,23.1,8.4c2.9,1.1,5.8,2,8.9,2.5
		c14,2.6,29.9-1.4,46.2-7.4c0.9-0.3,1.9-0.4,2.7-0.7c20.6-8.5,40.8-11.1,58.7-15.7c0.9-0.2,1.3,0.3,2.3,0.6c1.8,0.5,3.7,0.1,5,0.4
		c2.9,0.8,5.8,1.7,8.7,2.6c14.6,4.6,27.8,11.2,40.8,15.3c11.1,3.5,20.5,4.6,32,7.5c7.5,1.9,14.8,3.6,23.2,4.8
		c11,1.6,20.4,4.7,31.6,5.5c16.6,1.2,35.4-0.6,50.9-8.1c1-0.5,1.3-0.8,2.3-1.3c2.9-1.6,6.1-1.9,9.1-2.8c6.4-1.9,12.6-3.7,18.9-4.2
		c8.5-0.7,16.7-0.1,24.6,1.7c10.9,2.5,20.1,7.8,30.7,10.6c12.7,3.5,25.1,3.7,38.3,0.7c24.6-5.6,59.7-20.7,87.6-23.7"/>
	<path class="st0" d="M-22.7,197.1c12.8-2.5,28.1,3.4,43,8.5c15.3,5.2,31.4,3.1,45.6,5c3.8,0.5,7.9,0.7,11-0.7
		c1-0.4,1.4-0.7,2.3-1.1c3.1-1.5,6.2-2.3,9.1-4c12.1-6.8,23-12.9,35.8-15.1c5.4-0.9,10.7-0.8,16.7,0.6c5.3,1.2,10.9,2.7,16.9,3.9
		c17.6,3.4,35.7,5.8,52.6,2.9c10.4-1.8,21.2-1.9,31.2-1.9c4.1,0,8.2-0.1,12.1-0.1c10.8-0.2,19.9,0.8,29.7,1.7
		c9.9,0.9,20.7,0.1,32.7-0.2c3-0.1,6.1-0.1,9.1-0.2c11.2-0.5,21-2.1,32.4-1.5c9.4,0.4,18.3,2.6,27.5,5c8.4,2.2,15.9,5.7,23.1,8.3
		c2.9,1.1,5.8,1.9,8.9,2.4c14,2.4,29.8-1.7,46.1-7.8c0.9-0.3,1.8-0.4,2.7-0.7c20.5-8.6,40.7-11.5,58.5-16.2c0.9-0.2,1.3,0.3,2.3,0.6
		c1.8,0.5,3.7,0,5,0.4c2.9,0.8,5.8,1.6,8.7,2.5c14.6,4.5,27.7,11.2,40.6,15.6c10.9,3.7,20.3,5.2,31.8,8.2c7.5,2,14.7,3.8,23.1,4.9
		c11,1.6,20.4,4.5,31.6,5.2c16.6,1.1,35.3-0.8,50.8-8.2c1-0.5,1.3-0.8,2.3-1.3c3-1.5,6.2-1.9,9.1-2.8c6.4-1.9,12.6-3.6,18.9-4.2
		c8.5-0.7,16.7-0.1,24.6,1.8c10.9,2.5,20.1,7.7,30.7,10.6c12.7,3.5,25.1,3.8,38.3,0.9c25-5.5,60.8-20.8,89-23.8"/>
	<path class="st0" d="M-22.1,189.5c12.7-2.4,28,3.4,43,8.5c15.3,5.2,31.5,3.3,45.6,5.3c3.8,0.5,8,0.7,11.1-0.6
		c1-0.4,1.4-0.6,2.3-1.1c3.1-1.5,6.2-2.3,9.1-3.9c12.1-6.7,22.9-13.1,35.6-15.5c5.3-1,10.7-0.9,16.7,0.4c5.3,1.1,10.9,2.7,16.9,3.8
		c17.5,3.4,35.6,5.9,52.6,3.2c10.4-1.7,21.2-1.7,31.2-1.7c4.1,0,8.2-0.1,12.1-0.2c10.7-0.2,19.9,0.5,29.7,1.3
		c9.9,0.8,20.7-0.1,32.7-0.4c3-0.1,6.1-0.1,9.1-0.2c11.1-0.4,21.1-1.8,32.4-1.2c9.4,0.5,18.3,2.7,27.5,5.2
		c8.4,2.2,15.9,5.7,23.1,8.2c2.9,1,5.8,1.8,8.9,2.3c14,2.2,29.7-2,46-8.2c0.9-0.3,1.8-0.4,2.7-0.8c20.4-8.7,40.6-11.9,58.4-16.6
		c0.9-0.2,1.3,0.3,2.3,0.5c1.8,0.5,3.7,0,5,0.3c2.9,0.7,5.8,1.5,8.7,2.4c14.6,4.3,27.6,11.2,40.4,15.9c10.8,3.9,20.2,5.8,31.5,9
		c7.4,2.1,14.7,3.9,23,5.1c11,1.5,20.4,4.3,31.6,4.9c16.6,0.9,35.2-1,50.8-8.3c1-0.5,1.4-0.7,2.3-1.2c3-1.5,6.2-1.9,9.1-2.8
		c6.4-1.9,12.7-3.5,18.9-4.1c8.5-0.7,16.7,0,24.6,1.8c10.9,2.5,20.1,7.6,30.6,10.5c12.6,3.5,25,3.8,38.2,1
		c25.3-5.4,61.8-20.9,90.5-23.9"/>
	<path class="st0" d="M-21.6,182c12.7-2.4,28,3.4,42.9,8.6c15.3,5.2,31.5,3.5,45.5,5.6c3.9,0.6,8.1,0.8,11.3-0.5
		c1-0.4,1.4-0.6,2.4-1.1c3.1-1.5,6.2-2.3,9.1-3.9c12.1-6.7,22.7-13.3,35.4-15.8c5.3-1.1,10.7-1,16.7,0.2c5.3,1.1,10.9,2.6,16.9,3.7
		c17.5,3.4,35.6,6,52.5,3.6c10.4-1.5,21.3-1.5,31.2-1.4c4.1,0,8.2-0.1,12.1-0.2c10.7-0.3,19.9,0.2,29.7,0.9
		c9.9,0.6,20.6-0.4,32.6-0.6c3-0.1,6-0.1,9.1-0.2c11.1-0.4,21.1-1.6,32.4-0.8c9.4,0.6,18.3,2.9,27.4,5.3c8.4,2.3,15.9,5.6,23.2,8.1
		c2.9,1,5.9,1.8,8.9,2.2c13.9,2.1,29.6-2.3,45.9-8.6c0.9-0.3,1.8-0.4,2.7-0.8c20.4-8.8,40.6-12.3,58.2-17.1c0.9-0.2,1.4,0.2,2.3,0.5
		c1.8,0.4,3.6,0,5,0.3c2.9,0.7,5.9,1.4,8.8,2.2c14.6,4.2,27.5,11.3,40.2,16.2c10.7,4.2,20,6.4,31.3,9.8c7.4,2.2,14.6,4.1,22.9,5.2
		c10.9,1.5,20.5,4.1,31.6,4.6c16.5,0.8,35.2-1.2,50.7-8.4c1-0.5,1.4-0.7,2.3-1.2c3-1.5,6.2-1.9,9.2-2.7c6.4-1.8,12.7-3.5,18.9-4
		c8.5-0.7,16.7,0,24.5,1.8c10.8,2.5,20.1,7.6,30.6,10.5c12.6,3.5,25,3.9,38.2,1.2c25.7-5.3,62.9-21,91.9-24"/>
	<path class="st0" d="M-21.1,174.4c12.6-2.3,27.9,3.5,42.9,8.6c15.3,5.2,31.5,3.7,45.5,5.9c3.9,0.6,8.2,0.8,11.4-0.5
		c1-0.4,1.4-0.6,2.4-1c3.1-1.4,6.2-2.3,9.1-3.9c12.1-6.7,22.6-13.5,35.3-16.2c5.3-1.1,10.7-1.2,16.7,0c5.3,1,10.9,2.5,16.9,3.6
		c17.4,3.3,35.5,6,52.5,3.9c10.5-1.4,21.3-1.2,31.2-1.2c4.1,0,8.2-0.1,12.1-0.2c10.7-0.4,19.9,0,29.7,0.4c9.9,0.4,20.6-0.6,32.6-0.9
		c3-0.1,6-0.1,9.1-0.1c11.1-0.3,21.1-1.3,32.4-0.5c9.3,0.7,18.3,3,27.4,5.4c8.4,2.3,16,5.6,23.2,8c2.9,1,5.9,1.7,8.9,2.1
		c13.9,1.9,29.6-2.6,45.8-9c0.9-0.3,1.8-0.4,2.7-0.8c20.3-8.9,40.5-12.8,58.1-17.5c0.9-0.2,1.4,0.2,2.3,0.4c1.8,0.4,3.6-0.1,5,0.2
		c3,0.6,5.9,1.3,8.8,2.1c14.6,4.1,27.4,11.3,40.1,16.5c10.6,4.4,19.9,7,31,10.5c7.3,2.3,14.5,4.3,22.8,5.3
		c10.9,1.4,20.5,3.9,31.7,4.3c16.5,0.6,35.1-1.5,50.7-8.6c1-0.4,1.4-0.7,2.4-1.2c3-1.4,6.2-1.8,9.2-2.7c6.4-1.8,12.7-3.4,18.9-3.9
		c8.5-0.6,16.7,0,24.5,1.9c10.8,2.5,20.1,7.5,30.6,10.4c12.6,3.5,24.9,4,38.2,1.4c26-5.1,63.9-21.1,93.4-24.1"/>
	<path class="st0" d="M-20.6,166.8c12.5-2.3,27.8,3.5,42.9,8.6c15.2,5.2,31.6,4,45.4,6.2c4,0.6,8.3,0.9,11.6-0.4
		c1-0.4,1.4-0.6,2.4-1c3.1-1.4,6.2-2.2,9.1-3.8c12.1-6.7,22.5-13.7,35.1-16.5c5.3-1.2,10.6-1.3,16.7-0.2c5.3,1,10.9,2.4,16.9,3.6
		c17.4,3.3,35.5,6.1,52.5,4.2c10.5-1.2,21.3-1,31.2-1c4.1,0,8.2-0.1,12-0.3c10.7-0.4,19.9-0.3,29.7,0c9.9,0.3,20.6-0.9,32.6-1.1
		c3-0.1,6,0,9.1-0.1c11-0.2,21.1-1.1,32.4-0.1c9.3,0.8,18.2,3.1,27.3,5.6c8.4,2.3,16,5.5,23.2,7.8c2.9,0.9,5.9,1.6,9,2
		c13.9,1.7,29.5-2.9,45.7-9.4c0.9-0.4,1.8-0.5,2.7-0.8c20.2-9,40.4-13.2,57.9-17.9c0.9-0.2,1.4,0.2,2.3,0.4c1.8,0.4,3.6-0.1,5,0.2
		c3,0.6,5.9,1.2,8.8,2c14.6,3.9,27.4,11.3,39.9,16.9c10.5,4.7,19.7,7.6,30.8,11.3c7.3,2.5,14.4,4.4,22.7,5.5
		c10.9,1.4,20.5,3.7,31.7,4c16.5,0.5,35-1.7,50.7-8.7c1-0.4,1.4-0.7,2.4-1.2c3-1.4,6.2-1.8,9.2-2.6c6.4-1.8,12.7-3.3,18.9-3.8
		c8.5-0.6,16.7,0.1,24.5,1.9c10.8,2.5,20.1,7.5,30.6,10.4c12.5,3.5,24.8,4.1,38.2,1.5c26.4-5,65-21.2,94.8-24.2"/>
	<path class="st0" d="M-20,159.3c12.4-2.2,27.7,3.5,42.8,8.6c15.2,5.2,31.6,4.2,45.4,6.5c4.1,0.7,8.4,0.9,11.7-0.3
		c1-0.4,1.4-0.6,2.4-1c3.1-1.4,6.2-2.2,9.1-3.8c12-6.6,22.3-13.9,34.9-16.9c5.2-1.2,10.6-1.4,16.7-0.3c5.3,0.9,10.9,2.3,16.9,3.5
		c17.3,3.3,35.4,6.2,52.4,4.6c10.5-1,21.4-0.7,31.2-0.7c4.1,0,8.2-0.1,12-0.3c10.7-0.5,19.9-0.5,29.7-0.4c9.9,0.1,20.5-1.1,32.5-1.3
		c3-0.1,6,0.1,9.1-0.1c11-0.5,21.1-0.8,32.3,0.3c9.3,0.9,18.2,3.2,27.3,5.7c8.4,2.3,16,5.5,23.2,7.7c2.9,0.9,5.9,1.6,9,1.9
		c13.8,1.5,29.4-3.2,45.6-9.8c0.9-0.4,1.8-0.5,2.7-0.9c20.2-9.1,40.3-13.6,57.8-18.4c0.9-0.2,1.4,0.1,2.3,0.3c1.8,0.3,3.6-0.1,5,0.1
		c3,0.5,5.9,1.2,8.8,1.9c14.7,3.8,27.3,11.3,39.7,17.2c10.4,4.9,19.5,8.2,30.5,12.1c7.2,2.6,14.3,4.6,22.6,5.6
		c10.8,1.3,20.5,3.5,31.7,3.7c16.5,0.3,34.9-2,50.6-8.8c1-0.4,1.4-0.7,2.4-1.1c3-1.4,6.2-1.8,9.2-2.6c6.4-1.7,12.7-3.3,18.9-3.7
		c8.5-0.6,16.7,0.1,24.5,1.9c10.8,2.5,20.1,7.4,30.6,10.3c12.5,3.5,24.8,4.2,38.1,1.7c26.8-4.9,66.1-21.3,96.3-24.3"/>
	<path class="st0" d="M-19.5,151.7c12.4-2.2,27.7,3.5,42.8,8.6c15.2,5.2,31.6,4.4,45.3,6.8c4.1,0.7,8.5,1,11.8-0.2
		c1-0.4,1.5-0.6,2.4-1c3.1-1.3,6.2-2.2,9.1-3.8c12-6.6,22.2-14.1,34.7-17.2c5.2-1.3,10.6-1.5,16.7-0.5c5.3,0.9,10.9,2.3,16.9,3.4
		c17.3,3.3,35.4,6.3,52.4,4.9c10.6-0.9,21.4-0.5,31.1-0.5c4.1,0,8.1-0.2,12-0.4c10.7-0.6,19.8-0.6,29.7-0.8
		c9.8-0.2,20.5-1.4,32.5-1.5c3,0,6,0.1,9.1,0c11-0.4,21.1-0.6,32.3,0.6c9.3,1,18.2,3.4,27.2,5.9c8.4,2.3,16,5.4,23.2,7.6
		c2.9,0.9,5.9,1.5,9,1.8c13.8,1.4,29.4-3.5,45.4-10.3c0.9-0.4,1.8-0.5,2.7-0.9c20.1-9.2,39.7-17.2,57.6-18.8
		c0.9-0.1,1.4,0.1,2.4,0.3c1.8,0.3,3.6-0.2,5,0.1c3,0.5,5.9,1.1,8.8,1.8c14.7,3.7,27.2,11.4,39.5,17.5c10.3,5.1,19.4,8.8,30.3,12.8
		c7.2,2.7,14.3,4.8,22.5,5.8c10.8,1.3,20.5,3.3,31.7,3.4c16.5,0.1,34.8-2.2,50.6-8.9c1-0.4,1.4-0.7,2.4-1.1c3-1.4,6.2-1.7,9.2-2.5
		c6.4-1.7,12.7-3.2,18.9-3.6c8.5-0.6,16.7,0.2,24.5,2c10.8,2.5,20.2,7.4,30.6,10.3c12.4,3.5,24.7,4.2,38.1,1.9
		c27.1-4.8,67.1-21.4,97.7-24.4"/>
	<path class="st0" d="M-19,144.1c12.3-2.1,27.6,3.5,42.8,8.6c15.2,5.2,31.6,4.7,45.3,7.1c4.2,0.7,8.6,1,12-0.2
		c1-0.3,1.5-0.5,2.4-0.9c3.2-1.3,6.2-2.1,9.1-3.7c12-6.6,22-14.3,34.6-17.6c5.2-1.4,10.5-1.7,16.6-0.7c5.3,0.9,10.9,2.2,16.9,3.3
		c17.2,3.2,35.4,6.4,52.3,5.3c10.6-0.7,21.4-0.3,31.1-0.3c4.1,0,8.1-0.2,12-0.4c10.7-0.6,19.8-1,29.7-1.3c9.8-0.2,20.4-1.6,32.5-1.8
		c3,0,6,0.1,9.1,0c10.9-0.3,21.1-0.3,32.3,1c9.3,1.1,18.2,3.5,27.2,6c8.4,2.3,16,5.4,23.2,7.5c2.9,0.8,5.9,1.4,9,1.7
		c13.8,1.2,29.3-3.8,45.3-10.7c0.9-0.4,1.8-0.5,2.6-0.9c20-9.3,39.6-17.5,57.4-19.3c0.9-0.1,1.4,0.1,2.4,0.2c1.8,0.3,3.6-0.2,5,0
		c3,0.4,5.9,1,8.9,1.7c14.7,3.6,27.1,11.4,39.3,17.8c10.2,5.4,19.2,9.4,30,13.6c7.1,2.8,14.2,4.9,22.4,5.9
		c10.8,1.2,20.5,3.3,31.7,3.1c16.5-0.3,34.8-2.4,50.5-9c1-0.4,1.4-0.7,2.4-1.1c3-1.3,6.2-1.7,9.2-2.5c6.4-1.7,12.7-3.1,18.9-3.5
		c8.6-0.5,16.7,0.2,24.4,2c10.8,2.5,20.2,7.3,30.6,10.2c12.4,3.5,24.7,4.3,38.1,2.1c27.5-4.7,68.2-21.4,99.2-24.4"/>
	<path class="st0" d="M-18.4,136.6c12.2-2,27.5,3.5,42.7,8.7s31.6,4.9,45.2,7.4c4.2,0.8,8.7,1.1,12.1-0.1c1-0.3,1.5-0.5,2.4-0.9
		c3.2-1.3,6.2-2.1,9.1-3.7c12-6.5,21.9-14.4,34.4-17.9c5.1-1.4,10.5-1.8,16.6-0.9c5.3,0.8,10.9,2.1,16.9,3.2
		c17.1,3.2,35.3,6.5,52.3,5.6c10.6-0.6,21.4,0,31.1,0c4.1,0,8.1-0.2,12-0.4c10.7-0.7,19.8-1.3,29.7-1.7c9.8-0.4,20.4-1.9,32.4-2
		c3,0,6,0.1,9.1,0.1c10.9-0.2,21.1-0.1,32.3,1.3c9.2,1.2,18.1,3.6,27.1,6.1c8.4,2.3,16,5.4,23.3,7.4c2.9,0.8,5.9,1.4,9,1.6
		c13.7,1,29.2-4.1,45.2-11.1c0.9-0.4,1.8-0.5,2.6-0.9c20-9.4,39.5-17.8,57.3-19.7c0.9-0.1,1.4,0.1,2.4,0.2c1.8,0.2,3.6-0.2,5,0
		c3,0.4,6,0.9,8.9,1.6c14.7,3.4,27.1,11.4,39.2,18.1c10.1,5.6,19,10,29.8,14.4c7.1,2.9,14.1,5.1,22.3,6c10.7,1.2,20.6,2.9,31.8,2.8
		c16.5-0.2,34.7-2.7,50.5-9.1c1-0.4,1.5-0.6,2.4-1.1c3-1.3,6.2-1.7,9.2-2.5c6.4-1.6,12.7-3,18.9-3.4c8.6-0.5,16.7,0.2,24.4,2
		c10.8,2.5,20.2,7.3,30.6,10.2c12.4,3.5,24.6,4.4,38.1,2.2c27.8-4.5,69.3-21.5,100.6-24.5"/>
	<path class="st0" d="M-17.9,129c12.1-2,27.4,3.5,42.7,8.7c15.2,5.2,31.6,5.2,45.2,7.7c4.3,0.8,8.8,1.1,12.2,0
		c1-0.3,1.5-0.5,2.4-0.9c3.2-1.2,6.3-2.1,9.1-3.7c12-6.5,21.8-14.6,34.2-18.3c5.1-1.5,10.5-1.9,16.6-1c5.3,0.8,10.9,2,16.9,3.1
		c17.1,3.2,35.3,6.6,52.2,5.9c10.7-0.4,21.5,0.2,31.1,0.2c4.1,0,8.1-0.2,12-0.5c10.7-0.8,19.8-1.6,29.7-2.1
		c9.8-0.6,20.4-2.1,32.4-2.2c3,0,6,0.1,9.1,0.1c10.9-0.2,21.1,0.2,32.3,1.7c9.2,1.3,18.1,3.8,27.1,6.3c8.4,2.3,16,5.3,23.3,7.2
		c2.9,0.8,5.9,1.3,9,1.5c13.7,0.9,29.1-4.4,45.1-11.5c0.9-0.4,1.8-0.6,2.6-1c19.9-9.5,39.4-18,57.1-20.2c0.9-0.1,1.5,0,2.4,0.1
		c1.8,0.2,3.6-0.2,5-0.1c3,0.3,6,0.8,8.9,1.5c14.7,3.3,27,11.4,39,18.4c10,5.9,18.9,10.6,29.5,15.1c7,3,14,5.3,22.2,6.2
		c10.7,1.2,20.6,2.7,31.8,2.5c16.4-0.3,34.6-2.9,50.5-9.2c1-0.4,1.5-0.6,2.4-1c3-1.3,6.2-1.7,9.2-2.4c6.4-1.6,12.7-3,18.9-3.4
		c8.6-0.5,16.6,0.3,24.4,2.1c10.8,2.5,20.2,7.2,30.5,10.1c12.3,3.5,24.6,4.5,38,2.4c28.2-4.4,70.3-21.6,102.1-24.6"/>
	<path class="st0" d="M-17.4,121.4c12.1-1.9,27.4,3.5,42.7,8.7c15.2,5.2,31.6,5.5,45.1,8c4.4,0.8,8.9,1.2,12.4,0.1
		c1-0.3,1.5-0.5,2.4-0.8c3.2-1.2,6.3-2.1,9.1-3.6c11.9-6.5,21.6-14.8,34-18.6c5.1-1.5,10.4-2.1,16.6-1.2c5.3,0.7,10.9,1.9,16.9,3.1
		c17,3.2,35.2,6.7,52.2,6.3c10.7-0.2,21.5,0.4,31.1,0.5c4.1,0,8.1-0.2,12-0.5c10.7-0.8,19.8-1.8,29.6-2.5c9.8-0.7,20.3-2.4,32.4-2.4
		c3,0,6,0.1,9,0.1c10.8,0.2,21.1,0.4,32.2,2.1c9.2,1.4,18.1,3.9,27,6.4c8.4,2.3,16,5.3,23.3,7.1c2.9,0.8,5.9,1.2,9.1,1.4
		c13.7,0.7,29.1-4.7,45-11.9c0.8-0.4,1.8-0.6,2.6-1c19.8-9.6,39.3-18.3,57-20.6c0.9-0.1,1.5,0,2.4,0.1c1.8,0.2,3.6-0.3,5-0.1
		c3,0.3,6,0.7,8.9,1.4c14.7,3.2,26.9,11.5,38.8,18.8c9.9,6.1,18.7,11.2,29.3,15.9c7,3.1,14,5.4,22.1,6.3c10.7,1.1,20.6,2.5,31.8,2.2
		c16.4-0.5,34.5-3.2,50.4-9.3c1-0.4,1.5-0.6,2.4-1c3-1.2,6.2-1.6,9.2-2.4c6.4-1.6,12.7-2.9,19-3.3c8.6-0.5,16.6,0.3,24.4,2.1
		c10.8,2.5,20.2,7.1,30.5,10.1c12.3,3.5,24.5,4.6,38,2.6c28.5-4.3,71.4-21.7,103.5-24.7"/>
	<path class="st0" d="M-16.9,113.9c12-1.9,27.3,3.5,42.6,8.7c15.2,5.2,31.6,5.7,45.1,8.4c4.4,0.9,9,1.2,12.5,0.2
		c1-0.3,1.5-0.5,2.5-0.8c3.2-1.2,6.3-2,9.1-3.6c11.9-6.5,21.5-15,33.8-19c5.1-1.6,10.4-2.2,16.6-1.4c5.3,0.7,10.9,1.9,16.9,3
		c17,3.1,35.2,6.8,52.1,6.6c10.7-0.1,21.5,0.7,31.1,0.7c4.1,0,8.1-0.2,12-0.5c10.7-0.9,19.8-2.1,29.6-3c9.8-0.9,20.3-2.6,32.3-2.7
		c3,0,6,0.1,9,0.2c10.8,0.3,21.1,0.6,32.2,2.4c9.2,1.5,18,4,27,6.6c8.4,2.3,16,5.2,23.3,7c2.9,0.7,6,1.2,9.1,1.3
		c13.6,0.5,29-5,44.9-12.3c0.8-0.4,1.8-0.6,2.6-1c19.8-9.6,39.2-18.6,56.8-21.1c0.9-0.1,1.5,0.1,2.4,0c1.8-0.2,3.5-0.3,5-0.2
		c3,0.2,6,0.7,8.9,1.3c14.8,3.1,26.8,11.5,38.6,19.1c9.8,6.3,18.6,11.8,29,16.7c6.9,3.2,13.9,5.6,22,6.4c10.6,1.1,20.6,2.3,31.8,1.9
		c16.4-0.6,34.5-3.4,50.4-9.4c1-0.4,1.5-0.6,2.4-1c3-1.2,6.2-1.6,9.2-2.3c6.4-1.5,12.7-2.8,19-3.2c8.6-0.5,16.6,0.4,24.3,2.2
		c10.8,2.5,20.2,7.1,30.5,10c12.2,3.5,24.4,4.7,38,2.7c28.9-4.2,72.4-21.8,105-24.8"/>
	<path class="st0" d="M-16.3,106.3c11.9-1.8,27.2,3.5,42.6,8.7c15.2,5.2,31.6,6,45.1,8.7c4.5,0.9,9.1,1.2,12.7,0.2
		c1-0.3,1.5-0.4,2.5-0.8c3.2-1.1,6.3-2,9.1-3.6c11.9-6.4,21.3-15.2,33.7-19.3c5-1.7,10.4-2.3,16.6-1.6c5.3,0.6,10.9,1.8,16.9,2.9
		c16.9,3.1,35.1,6.9,52.1,7c10.8,0.1,21.5,0.9,31.1,0.9c4.1,0,8.1-0.2,11.9-0.6c10.6-1,19.8-2.3,29.6-3.4c9.8-1.1,20.2-2.9,32.3-2.9
		c3,0,6,0.1,9,0.2c10.8,0.4,21.1,0.9,32.2,2.8c9.2,1.6,18,4.2,26.9,6.7c8.4,2.4,16,5.2,23.3,6.9c2.9,0.7,6,1.1,9.1,1.2
		c13.6,0.4,28.9-5.3,44.8-12.7c0.8-0.4,1.8-0.6,2.6-1c19.7-9.7,39.1-18.9,56.7-21.5c0.9-0.1,1.5,0.1,2.4,0c1.8-0.2,3.5-0.3,5-0.3
		c3,0.2,6,0.6,9,1.2c14.8,2.9,26.8,11.5,38.4,19.4c9.7,6.6,18.4,12.4,28.8,17.4c6.8,3.3,13.8,5.8,21.9,6.6c10.6,1,20.6,2.1,31.9,1.6
		c16.4-0.8,34.4-3.7,50.3-9.5c0.9-0.3,1.5-0.6,2.5-1c3-1.2,6.2-1.6,9.2-2.3c6.4-1.5,12.7-2.8,19-3.1c8.6-0.4,16.6,0.4,24.3,2.2
		c10.8,2.5,20.2,7,30.5,10c12.2,3.5,24.4,4.8,38,2.9c29.2-4,73.5-21.9,106.4-24.9"/>
	<path class="st0" d="M-15.8,98.7c11.8-1.8,27.1,3.5,42.6,8.7c15.2,5.2,31.6,6.3,45,9c4.5,0.9,9.2,1.3,12.8,0.3
		c1-0.3,1.6-0.4,2.5-0.7c3.2-1.1,6.3-2,9.2-3.5c11.9-6.4,21.2-15.4,33.5-19.7c5-1.7,10.3-2.4,16.6-1.7c5.3,0.6,10.9,1.7,16.9,2.8
		c16.9,3.1,35.1,7,52,7.3c10.8,0.2,21.6,1.2,31.1,1.2c4.1,0,8.1-0.2,11.9-0.6c10.6-1,19.8-2.6,29.6-3.8c9.8-1.2,20.2-3.1,32.3-3.1
		c3,0,6,0.1,9,0.2c10.8,0.4,21.1,1.1,32.2,3.1c9.1,1.6,18,4.3,26.9,6.8c8.4,2.4,16.1,5.1,23.4,6.8c2.9,0.7,6,1,9.1,1.1
		c13.6,0.2,28.9-5.6,44.7-13.2c0.8-0.4,1.8-0.7,2.6-1.1c19.6-9.8,39-19.2,56.5-22c0.9-0.1,1.5,0.1,2.4,0c1.8-0.2,3.5-0.4,5-0.3
		c3,0.1,6,0.5,9,1c14.8,2.8,26.7,11.5,38.2,19.7c9.6,6.8,18.2,13,28.5,18.2c6.8,3.4,13.7,6,21.8,6.7c10.5,1,20.6,1.9,31.9,1.3
		c16.4-0.9,34.3-3.9,50.3-9.7c0.9-0.3,1.5-0.6,2.5-0.9c3-1.1,6.2-1.6,9.2-2.3c6.4-1.5,12.8-2.7,19-3c8.6-0.4,16.6,0.4,24.3,2.2
		c10.8,2.5,20.2,7,30.5,9.9c12.1,3.5,24.3,4.8,37.9,3.1c29.6-3.9,74.6-22,107.9-25"/>
	<path class="st0" d="M-15.3,91.2c11.8-1.7,27.1,3.5,42.5,8.8c15.2,5.2,31.4,8.4,45,9.3c4.7,0.3,9.3,1.3,12.9,0.4
		c1-0.2,1.6-0.4,2.5-0.7c3.2-1.1,6.3-2,9.2-3.5c11.9-6.4,21-15.6,33.3-20c5-1.8,10.3-2.6,16.5-1.9c5.2,0.5,10.9,1.6,16.9,2.7
		c16.8,3.1,35,7,52,7.6c10.8,0.4,21.6,1.4,31.1,1.4c4.1,0,8.1-0.2,11.9-0.6c10.6-1.1,19.8-2.8,29.6-4.2c9.8-1.4,20.2-3.4,32.3-3.4
		c3,0,6,0.1,9,0.3c10.7,0.5,21.1,1.4,32.2,3.5c9.1,1.7,18,4.4,26.8,7c8.3,2.4,16.1,5.1,23.4,6.7c2.9,0.6,6,1,9.1,1
		c13.5,0,28.8-5.9,44.6-13.6c0.8-0.4,1.7-0.7,2.6-1.1c19.5-9.9,38.9-19.5,56.4-22.4c0.9-0.2,1.5,0,2.4-0.1c1.8-0.2,3.5-0.4,5-0.4
		c3.1,0.1,6.1,0.4,9,0.9c14.8,2.7,26.6,11.6,38.1,20c9.5,7.1,18.1,13.6,28.3,19c6.7,3.6,13.6,6.1,21.7,6.8c10.5,0.9,20.7,1.7,31.9,1
		c16.4-1.1,34.2-4.2,50.2-9.8c0.9-0.3,1.6-0.6,2.5-0.9c3-1.1,6.2-1.5,9.2-2.2c6.5-1.4,12.8-2.6,19-2.9c8.6-0.4,16.6,0.5,24.3,2.3
		c10.8,2.5,20.2,6.9,30.5,9.9c12.1,3.5,24.3,4.9,37.9,3.2c30-3.7,75.6-22.1,109.3-25.1"/>
	<path class="st0" d="M-14.7,83.6c11.7-1.7,27,3.5,42.5,8.8c15.2,5.2,31.4,8.5,44.9,9.6c4.8,0.4,9.4,1.4,13.1,0.5
		c0.9-0.2,1.6-0.4,2.5-0.7c3.3-1,6.3-1.9,9.2-3.5c11.9-6.3,20.9-15.8,33.1-20.3c5-1.8,10.3-2.7,16.5-2.1c5.2,0.5,10.9,1.6,16.9,2.7
		c16.8,3,35,7.1,51.9,8c10.9,0.5,21.6,1.6,31,1.7c4.1,0,8.1-0.3,11.9-0.7c10.6-1.2,19.8-3.1,29.6-4.7c9.7-1.6,20.1-3.6,32.2-3.6
		c3,0,6,0.2,9,0.3c10.7,0.6,21.1,1.6,32.1,3.9c9.1,1.8,17.9,4.6,26.8,7.1c8.3,2.4,16.1,5,23.4,6.5c2.9,0.6,6,0.9,9.2,0.9
		c13.5-0.1,28.7-6.2,44.5-14c0.8-0.4,1.7-0.7,2.6-1.1c19.5-10,38.8-19.8,56.2-22.8c0.9-0.2,1.6,0,2.4-0.1c1.7-0.2,3.5-0.4,5-0.4
		c3.1,0,6.1,0.3,9,0.8c14.8,2.5,26.6,11.6,37.9,20.4c9.4,7.3,17.9,14.2,28,19.7c6.7,3.7,13.6,6.3,21.6,7c10.5,0.9,20.7,1.5,31.9,0.7
		c16.4-1.2,34.2-4.4,50.2-9.9c0.9-0.3,1.6-0.6,2.5-0.9c3-1.1,6.2-1.5,9.2-2.2c6.5-1.4,12.8-2.5,19-2.8c8.6-0.4,16.6,0.5,24.3,2.3
		c10.7,2.5,20.2,6.9,30.5,9.8c12.1,3.5,24.2,5,37.9,3.4c30.3-3.6,76.7-22.2,110.8-25.2"/>
	<path class="st0" d="M-14.2,76c11.6-1.6,26.9,3.5,42.5,8.8c15.2,5.2,31.4,8.7,44.9,9.9c4.8,0.4,9.4,1.4,13.2,0.6
		c0.9-0.2,1.6-0.4,2.5-0.7c3.3-1,6.3-1.9,9.2-3.4c11.8-6.3,20.8-16,32.9-20.7c4.9-1.9,10.3-2.8,16.5-2.3c5.2,0.4,10.9,1.5,16.9,2.6
		c16.7,3,34.9,7.2,51.9,8.3c10.9,0.7,21.6,1.9,31,1.9c4.1,0,8.1-0.3,11.9-0.7c10.6-1.2,19.8-3.4,29.6-5.1c9.7-1.7,20.1-3.9,32.2-3.8
		c3,0,6,0.2,9,0.4c10.7,0.7,21.1,1.9,32.1,4.2c9.1,1.9,17.9,4.7,26.7,7.2c8.3,2.4,16.1,5,23.4,6.4c3,0.6,6,0.8,9.2,0.7
		c13.5-0.3,28.7-6.6,44.4-14.4c0.8-0.4,1.7-0.7,2.6-1.1c19.4-10.1,38.7-20.1,56.1-23.3c0.9-0.2,1.6-0.1,2.5-0.2
		c1.7-0.2,3.5-0.5,5-0.5c3.1,0,6.1,0.2,9,0.7c14.8,2.4,26.5,11.6,37.7,20.7c9.3,7.6,17.7,14.8,27.8,20.5c6.6,3.8,13.5,6.5,21.5,7.1
		c10.4,0.9,20.7,1.3,31.9,0.4c16.3-1.4,34.1-4.7,50.2-10c0.9-0.3,1.6-0.5,2.5-0.9c3.1-1,6.2-1.5,9.2-2.1c6.5-1.4,12.8-2.5,19-2.7
		c8.6-0.3,16.6,0.6,24.2,2.3c10.7,2.5,20.2,6.8,30.5,9.8c12,3.5,24.1,5.1,37.9,3.6c30.7-3.5,77.7-22.3,112.2-25.3"/>
	<path class="st0" d="M-13.7,68.5c11.5-1.6,26.8,3.5,42.4,8.8c15.2,5.2,31.4,8.9,44.8,10.2c4.9,0.5,9.5,1.4,13.3,0.6
		c0.9-0.2,1.6-0.4,2.5-0.6c3.3-1,6.3-1.9,9.2-3.4c11.8-6.3,20.6-16.2,32.8-21c4.9-2,10.2-2.9,16.5-2.5c5.2,0.4,10.9,1.4,16.9,2.5
		c16.7,3,34.9,7.3,51.8,8.7c10.9,0.9,21.7,2.1,31,2.1c4.1,0,8.1-0.3,11.9-0.7c10.6-1.3,19.8-3.6,29.6-5.5c9.7-1.9,20.1-4.1,32.2-4
		c3,0,5.9,0.2,9,0.4c10.6,0.7,21.1,2.1,32.1,4.6c9.1,2,17.9,4.8,26.7,7.4c8.3,2.4,16.1,4.9,23.4,6.3c3,0.5,6,0.8,9.2,0.6
		c13.4-0.5,28.6-6.9,44.3-14.8c0.8-0.4,1.7-0.7,2.5-1.2c19.3-10.2,38.6-20.3,55.9-23.7c0.9-0.2,1.6-0.1,2.5-0.2
		c1.7-0.3,3.5-0.5,5-0.5c3.1,0,6.1,0.2,9,0.6c14.8,2.3,26.4,11.6,37.5,21c9.2,7.8,17.6,15.4,27.5,21.3c6.6,3.9,13.4,6.6,21.4,7.3
		c10.4,0.8,20.7,1.1,32,0.1c16.3-1.5,34-4.9,50.1-10.1c0.9-0.3,1.6-0.5,2.5-0.8c3.1-1,6.2-1.5,9.2-2.1c6.5-1.3,12.8-2.4,19-2.6
		c8.6-0.3,16.6,0.6,24.2,2.4c10.7,2.5,20.2,6.8,30.4,9.7c12,3.5,24.1,5.2,37.8,3.7c31-3.3,78.8-22.4,113.7-25.4"/>
	<path class="st0" d="M-13.2,60.9c11.5-1.5,26.8,3.5,42.4,8.8c15.2,5.2,31.3,9.1,44.8,10.5c4.9,0.5,9.6,1.5,13.5,0.7
		c0.9-0.2,1.6-0.3,2.5-0.6c3.3-0.9,6.3-1.8,9.2-3.3c11.8-6.2,20.5-16.4,32.6-21.4c4.9-2,10.2-3.1,16.5-2.6
		c5.2,0.4,10.9,1.3,16.9,2.4c16.6,3,34.9,7.4,51.8,9c11,1,21.7,2.3,31,2.4c4.1,0,8.1-0.3,11.9-0.8c10.6-1.4,19.8-3.9,29.6-5.9
		c9.7-2.1,20-4.4,32.1-4.3c2.9,0,5.9,0.2,9,0.4c10.6,0.8,21.1,2.4,32.1,5c9,2.1,17.9,5,26.6,7.5c8.3,2.4,16.1,4.9,23.4,6.2
		c3,0.5,6,0.7,9.2,0.5c13.4-0.6,28.5-7.2,44.2-15.2c0.8-0.4,1.7-0.8,2.5-1.2c19.3-10.3,38.5-20.6,55.7-24.2c0.9-0.2,1.6-0.2,2.5-0.3
		c1.7-0.1,3.5-0.5,5-0.6c3.1-0.1,6.1,0.1,9.1,0.5c14.9,2.2,26.4,11.7,37.3,21.3c9.1,8,17.4,16,27.3,22c6.5,4,13.3,6.8,21.3,7.4
		c10.4,0.8,20.7,0.9,32-0.2c16.3-1.7,33.9-5.2,50.1-10.2c0.9-0.3,1.6-0.5,2.5-0.8c3.1-1,6.2-1.4,9.2-2c6.5-1.3,12.8-2.3,19-2.6
		c8.6-0.3,16.6,0.7,24.2,2.4c10.7,2.5,20.2,6.7,30.4,9.7c11.9,3.5,24,5.3,37.8,3.9c31.4-3.2,79.9-22.5,115.1-25.5"/>
	<path class="st0" d="M-12.6,53.3c11.4-1.5,26.7,3.5,42.4,8.9C45,67.4,61.1,71.5,74.5,73c5,0.6,9.7,1.5,13.6,0.8
		c0.9-0.2,1.7-0.3,2.6-0.6c3.3-0.9,6.3-1.8,9.2-3.3c11.8-6.2,20.3-16.6,32.4-21.7c4.9-2.1,10.2-3.2,16.5-2.8
		c5.2,0.3,10.9,1.2,16.9,2.3c16.5,2.9,34.8,7.5,51.7,9.3c11,1.2,21.7,2.6,31,2.6c4.1,0,8.1-0.3,11.9-0.8c10.6-1.4,19.8-4.1,29.6-6.4
		c9.7-2.2,20-4.6,32.1-4.5c2.9,0,5.9,0.2,9,0.5c10.6,0.9,21.1,2.6,32.1,5.3c9,2.2,17.8,5.1,26.6,7.7c8.3,2.4,16.1,4.8,23.5,6.1
		c3,0.5,6,0.6,9.2,0.4c13.3-0.8,28.5-7.5,44.1-15.7c0.8-0.4,1.7-0.8,2.5-1.2c19.2-10.4,38.4-20.9,55.6-24.6c0.9-0.2,1.6-0.3,2.5-0.3
		c1.7-0.1,3.5-0.6,5-0.6c3.1-0.1,6.1,0,9.1,0.4c14.9,2,26.3,11.7,37.2,21.6c9,8.3,17.3,16.6,27,22.8c6.5,4.1,13.2,7,21.2,7.5
		c10.3,0.7,20.7,0.7,32-0.5c16.3-1.8,33.9-5.4,50-10.3c0.9-0.3,1.6-0.5,2.5-0.8c3.1-0.9,6.2-1.4,9.2-2c6.5-1.3,12.8-2.3,19-2.5
		c8.6-0.3,16.6,0.7,24.2,2.4c10.7,2.5,20.2,6.6,30.4,9.6c11.9,3.5,24,5.4,37.8,4.1c31.7-3,80.9-22.6,116.6-25.6"/>
	<path class="st0" d="M-12.1,45.7c11.3-1.4,26.6,3.5,42.3,8.9c15.2,5.2,31.3,9.4,44.7,11.1c5.1,0.6,9.8,1.6,13.8,0.9
		c0.9-0.2,1.7-0.3,2.6-0.5c3.3-0.8,6.3-1.8,9.2-3.3c11.8-6.2,20.2-16.8,32.2-22.1c4.8-2.1,10.1-3.3,16.5-3
		c5.2,0.3,10.9,1.2,16.9,2.2c16.5,2.9,34.8,7.6,51.7,9.7c11,1.4,21.7,2.8,31,2.9c4.1,0,8.1-0.3,11.8-0.8c10.6-1.5,19.8-4.4,29.6-6.8
		c9.7-2.4,19.9-4.9,32.1-4.7c2.9,0,5.9,0.2,9,0.5c10.5,0.9,21.1,2.9,32.1,5.7c9,2.3,17.8,5.2,26.5,7.8c8.3,2.4,16.1,4.8,23.5,5.9
		c3,0.5,6,0.6,9.2,0.3c13.3-1,28.4-7.8,44-16.1c0.8-0.4,1.7-0.8,2.5-1.3c19.1-10.5,38.3-21.2,55.4-25.1c0.9-0.2,1.6-0.3,2.5-0.4
		c1.7-0.2,3.4-0.6,5-0.7c3.1-0.2,6.2-0.1,9.1,0.3c14.9,1.9,26.2,11.7,37,22c9,8.5,17.1,17.2,26.8,23.6c6.4,4.2,13.2,7.1,21.1,7.7
		c10.3,0.7,20.7,0.5,32-0.8c16.3-2,33.8-5.7,50-10.4c0.9-0.3,1.6-0.5,2.5-0.7c3.1-0.9,6.2-1.4,9.2-2c6.5-1.3,12.8-2.2,19-2.4
		c8.7-0.2,16.6,0.7,24.1,2.5c10.7,2.5,20.3,6.6,30.4,9.6c11.9,3.5,23.9,5.5,37.8,4.2c32.1-2.9,82-22.7,118-25.7"/>
	<path class="st0" d="M-11.6,38.2c11.2-1.4,26.6,3.6,42.3,8.9c15.2,5.2,31.3,9.6,44.6,11.4c5.1,0.7,9.9,1.6,13.9,1
		c0.9-0.1,1.7-0.3,2.6-0.5c3.3-0.8,6.4-1.8,9.2-3.2c11.7-6.2,20.1-16.9,32-22.4c4.8-2.2,10.1-3.4,16.4-3.2
		c5.2,0.2,10.9,1.1,16.9,2.2c16.4,2.9,34.7,7.7,51.7,10c11.1,1.5,21.8,3.1,31,3.1c4.1,0,8.1-0.3,11.8-0.9
		c10.6-1.6,19.8-4.6,29.5-7.2s19.9-5.1,32-4.9c2.9,0,5.9,0.3,9,0.5c10.5,1,21.1,3.1,32,6c9,2.4,17.8,5.4,26.5,7.9
		c8.3,2.5,16.1,4.8,23.5,5.8c3,0.4,6.1,0.5,9.3,0.2c13.3-1.1,28.4-8.1,43.9-16.5c0.8-0.4,1.7-0.8,2.5-1.3
		c19-10.6,38.2-21.5,55.3-25.5c0.9-0.2,1.6-0.3,2.5-0.4c1.7-0.2,3.4-0.6,5-0.7c3.1-0.2,6.2-0.2,9.1,0.2
		c14.9,1.8,26.2,11.7,36.8,22.3c8.9,8.8,16.9,17.8,26.5,24.3c6.4,4.3,13.1,7.3,21,7.8c10.3,0.6,20.8,0.3,32-1.1
		c16.3-2.1,33.7-6,50-10.5c0.9-0.3,1.7-0.5,2.6-0.7c3.1-0.9,6.2-1.3,9.2-1.9c6.5-1.2,12.8-2.1,19-2.3c8.7-0.2,16.6,0.8,24.1,2.5
		c10.7,2.5,20.3,6.5,30.4,9.5c11.8,3.5,23.8,5.6,37.7,4.4c32.4-2.7,83-22.8,119.5-25.8"/>
	<path class="st0" d="M-11,30.6c11.2-1.3,26.5,3.6,42.3,8.9c15.2,5.2,31.3,9.8,44.6,11.8c5.2,0.8,10,1.6,14,1
		c0.9-0.1,1.7-0.3,2.6-0.5c3.3-0.8,6.4-1.7,9.2-3.2c11.7-6.1,19.9-17.1,31.9-22.8c4.8-2.3,10.1-3.6,16.4-3.3
		c5.2,0.2,10.9,1,16.9,2.1c16.4,2.9,34.7,7.8,51.6,10.4c11.1,1.7,21.8,3.3,31,3.3c4.1,0,8-0.3,11.8-0.9c10.6-1.6,19.8-4.9,29.5-7.6
		c9.6-2.7,19.9-5.4,32-5.2c2.9,0,5.9,0.3,8.9,0.6c10.5,1.1,21.1,3.4,32,6.4c8.9,2.5,17.8,5.5,26.4,8.1c8.3,2.5,16.1,4.7,23.5,5.7
		c3,0.4,6.1,0.4,9.3,0.1c13.2-1.3,28.3-8.4,43.8-16.9c0.8-0.5,1.7-0.8,2.5-1.3c19-10.7,38.1-21.8,55.1-26c0.9-0.2,1.6-0.3,2.5-0.5
		c1.7-0.2,3.4-0.6,5-0.8c3.1-0.3,6.2-0.3,9.1,0.1c14.9,1.6,26.1,11.8,36.6,22.6c8.8,9,16.8,18.4,26.3,25.1c6.3,4.4,13,7.5,20.9,7.9
		c10.2,0.6,20.8,0.1,32.1-1.4c16.3-2.3,33.6-6.2,49.9-10.7c0.9-0.2,1.7-0.5,2.6-0.7c3.1-0.8,6.2-1.3,9.3-1.9
		c6.5-1.2,12.8-2.1,19-2.2c8.7-0.2,16.6,0.8,24.1,2.5c10.7,2.5,20.3,6.5,30.4,9.5c11.8,3.5,23.8,5.7,37.7,4.6
		c32.9-2.5,84.2-22.8,121-25.8"/>
	<path class="st0" d="M-10.5,23c11.1-1.3,26.4,3.6,42.2,8.9C46.9,37.1,63,41.9,76.2,44c5.2,0.8,10.1,1.7,14.2,1.1
		c0.9-0.1,1.7-0.3,2.6-0.4c3.3-0.7,6.4-1.7,9.2-3.2c11.7-6.1,19.8-17.3,31.7-23.1c4.8-2.3,10-3.7,16.4-3.5c5.2,0.1,10.9,0.9,16.9,2
		c16.3,2.9,34.6,7.9,51.6,10.7c11.1,1.8,21.8,3.5,31,3.6c4.1,0,8-0.3,11.8-0.9c10.6-1.7,19.8-5.2,29.5-8.1c9.6-2.9,19.8-5.6,32-5.4
		c2.9,0.1,5.9,0.3,8.9,0.6c10.5,1.2,21.1,3.6,32,6.8c8.9,2.6,17.7,5.6,26.4,8.2c8.3,2.5,16.1,4.7,23.5,5.6c3,0.4,6.1,0.4,9.3,0
		c13.2-1.4,28.2-8.7,43.7-17.3c0.8-0.5,1.7-0.9,2.5-1.3c18.9-10.8,38-22,55-26.4c0.9-0.2,1.7-0.4,2.5-0.5c1.7-0.3,3.4-0.7,5-0.8
		c3.1-0.3,6.2-0.3,9.2,0c14.9,1.5,26,11.8,36.4,22.9c8.7,9.3,16.6,19,26,25.9c6.2,4.5,12.9,7.6,20.8,8.1c10.2,0.5,20.8-0.1,32.1-1.7
		c16.2-2.4,33.6-6.5,49.9-10.8c0.9-0.2,1.7-0.4,2.6-0.7c3.1-0.8,6.2-1.3,9.3-1.8c6.5-1.2,12.8-2,19-2.1c8.7-0.2,16.6,0.9,24.1,2.6
		c10.7,2.5,20.3,6.4,30.4,9.5c11.7,3.5,23.7,5.8,37.7,4.7c33.2-2.4,85.2-23,122.4-26"/>
	<path class="st0" d="M-10,15.5c11-1.2,26.3,3.6,42.2,8.9c15.2,5.2,31.2,10.2,44.5,12.4C82,37.7,86.9,38.5,91,38
		c0.9-0.1,1.7-0.2,2.6-0.4c3.3-0.7,6.4-1.7,9.2-3.1c11.7-6.1,19.6-17.5,31.5-23.5c4.7-2.4,10-3.8,16.4-3.7
		c5.2,0.1,10.9,0.9,16.9,1.9c16.3,2.8,34.6,8,51.5,11c11.2,2,21.9,3.8,30.9,3.8c4.1,0,8-0.3,11.8-1c10.6-1.7,19.8-5.4,29.5-8.5
		c9.6-3.1,19.8-5.9,31.9-5.6c2.9,0.1,5.9,0.3,8.9,0.7c10.4,1.2,21.1,3.9,32,7.1c8.9,2.7,17.7,5.8,26.3,8.4
		c8.3,2.5,16.2,4.6,23.5,5.5c3,0.3,6.1,0.3,9.3-0.1c13.2-1.6,28.2-9,43.6-17.7c0.8-0.5,1.7-0.9,2.5-1.4
		c18.8-10.8,37.9-22.3,54.8-26.8c0.9-0.2,1.7-0.4,2.5-0.5c1.7-0.3,3.4-0.7,5-0.9c3.2-0.4,6.2-0.4,9.2-0.2c15,1.4,26,11.8,36.3,23.2
		c8.6,9.5,16.4,19.6,25.8,26.6c6.2,4.7,12.9,7.8,20.7,8.2c10.2,0.5,20.8-0.3,32.1-2c16.2-2.6,33.5-6.8,49.8-10.9
		c0.9-0.2,1.7-0.4,2.6-0.6c3.1-0.8,6.2-1.3,9.3-1.8c6.5-1.1,12.8-1.9,19-2c8.7-0.1,16.6,0.9,24.1,2.6c10.7,2.5,20.3,6.4,30.4,9.4
		c11.7,3.5,23.7,5.9,37.7,4.9c33.5-2.3,86.2-23.1,123.8-26.1"/>
	<path class="st0" d="M-9.5,7.9c10.9-1.1,26.3,3.6,42.2,9c15.2,5.2,31.2,10.4,44.4,12.7c5.4,0.9,10.3,1.7,14.4,1.3
		c0.9-0.1,1.7-0.2,2.6-0.4c3.4-0.7,6.4-1.6,9.2-3.1c11.7-6,19.5-17.7,31.3-23.8c4.7-2.4,10-3.9,16.4-3.9c5.2,0.1,10.9,0.8,16.9,1.8
		c16.2,2.8,34.5,8.1,51.5,11.4c11.2,2.2,21.9,4,30.9,4.1c4.1,0,8-0.4,11.8-1c10.5-1.8,19.8-5.7,29.5-8.9c9.6-3.2,19.7-6.1,31.9-5.8
		c2.9,0.1,5.9,0.3,8.9,0.7c10.4,1.3,21.1,4.1,32,7.5c8.9,2.8,17.7,5.9,26.3,8.5c8.3,2.5,16.2,4.6,23.6,5.3c3,0.3,6.1,0.2,9.3-0.2
		c13.1-1.7,28.1-9.3,43.5-18.1c0.8-0.5,1.7-0.9,2.5-1.4c18.7-10.9,37.8-22.6,54.7-27.3c0.9-0.2,1.7-0.4,2.5-0.6
		c1.7-0.3,3.4-0.7,5-0.9c3.2-0.4,6.2-0.5,9.2-0.3c15,1.3,25.9,11.8,36.1,23.5c8.5,9.7,16.3,20.2,25.5,27.4c6.1,4.8,12.8,8,20.6,8.3
		c10.1,0.5,20.8-0.5,32.1-2.3c16.2-2.7,33.4-7,49.8-11c0.9-0.2,1.7-0.4,2.6-0.6c3.1-0.7,6.2-1.2,9.3-1.8c6.5-1.1,12.9-1.8,19-1.9
		c8.7-0.1,16.6,0.9,24,2.7c10.7,2.5,20.3,6.3,30.4,9.4c11.6,3.5,23.6,5.9,37.6,5.1c33.9-2.1,87.3-23.2,125.3-26.2"/>
	<path class="st0" d="M-8.9,0.3c10.8-1.1,26.2,3.6,42.1,9c15.2,5.2,31.2,10.5,44.4,13c5.4,1,10.4,1.7,14.6,1.4
		c0.9-0.1,1.8-0.2,2.6-0.4c3.4-0.6,6.4-1.6,9.2-3.1c11.6-6,19.3-17.9,31.1-24.2c4.7-2.5,10-4.1,16.4-4.1c5.2,0,10.9,0.7,16.9,1.7
		c16.2,2.8,34.5,8.2,51.4,11.7c11.2,2.4,21.9,4.3,30.9,4.3c4.1,0,8-0.4,11.8-1C273,6.7,282.3,2.7,292-0.7c9.6-3.4,19.7-6.4,31.9-6.1
		c2.9,0.1,5.9,0.3,8.9,0.7c10.4,1.4,21.1,4.4,31.9,7.8c8.9,2.8,17.7,6,26.2,8.6c8.3,2.5,16.2,4.5,23.6,5.2c3,0.3,6.1,0.2,9.3-0.3
		c13.1-1.9,28-9.6,43.4-18.6c0.8-0.5,1.6-0.9,2.5-1.4c18.7-11,37.7-22.9,54.5-27.7c0.9-0.3,1.7-0.5,2.6-0.6c1.7-0.4,3.4-0.8,5-1
		c3.2-0.5,6.3-0.6,9.2-0.4c15,1.1,25.8,11.9,35.9,23.9c8.4,10,16.1,20.8,25.3,28.2c6.1,4.9,12.7,8.2,20.5,8.5
		c10.1,0.4,20.8-0.7,32.1-2.6c16.2-2.9,33.4-7.3,49.8-11.1c0.9-0.2,1.7-0.4,2.6-0.6c3.1-0.7,6.2-1.2,9.3-1.7
		c6.5-1.1,12.9-1.8,19-1.8c8.7-0.1,16.6,1,24,2.7c10.6,2.5,20.3,6.2,30.3,9.3c11.6,3.5,23.5,6,37.6,5.2
		c34.2-1.9,88.3-23.3,126.7-26.3"/>
	<path class="st0" d="M-8.4-7.2c10.8-1,26.1,3.6,42.1,9C48.9,7,64.9,12.5,78,15.1c5.5,1.1,10.5,1.8,14.7,1.4
		c0.9-0.1,1.8-0.2,2.6-0.3c3.4-0.6,6.4-1.6,9.2-3c11.6-6,19.2-18.1,31-24.5c4.6-2.6,9.9-4.2,16.4-4.2c5.2,0,10.9,0.6,16.9,1.7
		c16.1,2.8,34.4,8.3,51.4,12.1c11.2,2.5,21.9,4.5,30.9,4.5c4.1,0,8-0.4,11.8-1.1c10.5-2,19.8-6.2,29.5-9.8
		c9.6-3.5,19.7-6.6,31.8-6.3c2.9,0.1,5.9,0.3,8.9,0.8c10.3,1.4,21.1,4.6,31.9,8.2c8.8,2.9,17.6,6.2,26.2,8.8
		c8.3,2.5,16.2,4.5,23.6,5.1c3,0.2,6.1,0.1,9.4-0.4c13.1-2.1,28-9.9,43.3-19c0.8-0.5,1.6-0.9,2.5-1.4c18.6-11.1,37.6-23.2,54.4-28.2
		c0.9-0.3,1.7-0.5,2.6-0.7c1.7-0.4,3.4-0.8,5-1.1c3.2-0.5,6.3-0.7,9.2-0.5c15,1,25.8,11.9,35.7,24.2c8.3,10.2,15.9,21.4,25,28.9
		c6,5,12.6,8.3,20.4,8.6c10.1,0.4,20.9-0.9,32.2-2.9c16.2-3,33.3-7.6,49.7-11.2c0.9-0.2,1.7-0.4,2.6-0.6c3.1-0.7,6.2-1.2,9.3-1.7
		c6.5-1,12.9-1.7,19-1.8c8.7-0.1,16.6,1,24,2.7c10.6,2.5,20.3,6.2,30.3,9.3c11.6,3.5,23.5,6.1,37.6,5.4
		c34.6-1.8,89.4-23.4,128.2-26.4"/>
	<path class="st0" d="M-7.9-14.8c10.7-1,26,3.6,42,9C49.3-0.6,65.3,5.1,78.4,7.8C83.9,8.9,89,9.6,93.3,9.3C94.2,9.2,95.1,9.1,96,9
		c3.4-0.5,6.4-1.6,9.2-3c11.6-5.9,19-18.3,30.8-24.9c4.6-2.6,9.9-4.3,16.3-4.4c5.2-0.1,10.9,0.5,16.9,1.6c16,2.7,34.4,8.4,51.3,12.4
		c11.3,2.7,22,4.7,30.9,4.8c4.1,0,8-0.4,11.7-1.1c10.5-2,19.8-6.4,29.5-10.2c9.6-3.7,19.6-6.8,31.8-6.5c2.9,0.1,5.9,0.4,8.9,0.8
		c10.3,1.5,21.1,4.9,31.9,8.6c8.8,3,17.6,6.3,26.1,8.9c8.2,2.5,16.2,4.4,23.6,5c3,0.2,6.1,0,9.4-0.5c13-2.2,27.9-10.2,43.2-19.4
		c0.8-0.5,1.6-1,2.4-1.5c18.5-11.2,37.4-23.5,54.2-28.6c0.9-0.3,1.7-0.5,2.6-0.7c1.7-0.4,3.4-0.8,5-1.1c3.2-0.5,6.3-0.8,9.3-0.6
		c15,0.9,25.7,11.9,35.5,24.5c8.2,10.5,15.8,22,24.8,29.7c6,5.1,12.5,8.5,20.3,8.7c10,0.3,20.9-1.1,32.2-3.2
		C670,5.2,687,0.5,703.5-3c0.9-0.2,1.8-0.4,2.6-0.5c3.1-0.6,6.2-1.2,9.3-1.6c6.5-1,12.9-1.6,19-1.7c8.7-0.1,16.6,1.1,24,2.8
		c10.6,2.5,20.3,6.1,30.3,9.2c11.5,3.5,23.4,6.3,37.6,5.6c34.9-1.6,90.5-23.5,129.6-26.5"/>
	<path id="XMLID_5_" class="st0" d="M-7.3-22.4C17.7-24.6,68.8,3.5,94,2.1c25.3-1.4,30.9-32.4,58.8-33c28-0.6,71.9,19.1,99.1,19.3
		c27.2,0.1,44-19.4,73-18.5c28.8,0.9,63.2,22.1,90.5,23.7C450.6-4,505-61.8,541.2-60c35.9,1.8,46.5,63.2,80.1,64.2
		c33.5,1,77.1-18.6,112.8-18.7c35.7-0.1,56.7,19.2,91.8,17.7c35.3-1.4,91.5-23.6,131.1-26.6"/>
</g>
</svg>
