<?xml version="1.0" encoding="utf-8"?>
<!-- Generator: Adobe Illustrator 22.0.1, SVG Export Plug-In . SVG Version: 6.00 Build 0)  -->
<svg version="1.1" id="Layer_1" xmlns="http://www.w3.org/2000/svg" xmlns:xlink="http://www.w3.org/1999/xlink" x="0px" y="0px"
	 viewBox="0 0 511.3 508" style="enable-background:new 0 0 511.3 508;" xml:space="preserve">
<style type="text/css">
	.st0{display:none;fill:#BFBFBF;stroke:#000000;stroke-miterlimit:10;}
	.st1{fill:#3a32e9;}
</style>
<rect x="0" y="-4" class="st0" width="512" height="512"/>
<path class="st1" d="M394.3,72.5v-55c0-9.6-7.9-17.5-17.5-17.5H135.2c-9.6,0-17.5,7.9-17.5,17.5v54l15-0.5V17.5c0-1.4,1.1-2.5,2.5-2.5l0,0h241.6
	c1.4,0,2.5,1.1,2.5,2.5V71L394.3,72.5z"/>
<g>
	<path class="st1" d="M504.5,169c4.1,0,7.5-3.4,7.5-7.5v-44.6c0-12.6-10.2-22.8-22.8-22.8h-64.9V77c0-9.6-7.9-17.5-17.5-17.5H105.2
		c-9.6,0-17.5,7.9-17.5,17.5v17H22.8C10.2,94.1,0,104.3,0,116.9V328c0,4.1,3.4,7.5,7.5,7.5c4.1,0,7.5-3.4,7.5-7.5V116.9
		c0-4.3,3.5-7.8,7.8-7.8h64.9v283.6H15v-32.1c0-4.1-3.4-7.5-7.5-7.5c-4.1,0-7.5,3.4-7.5,7.5v78.3c0,9.8,7.9,17.7,17.7,17.7h181.8
		V493h-31c-4.1,0-7.5,3.4-7.5,7.5c0,4.1,3.4,7.5,7.5,7.5h175c4.1,0,7.5-3.4,7.5-7.5c0-4.1-3.4-7.5-7.5-7.5h-31v-36.3h82.2
		c4.1,0,7.5-3.4,7.5-7.5c0-4.1-3.4-7.5-7.5-7.5h-377c-1.5,0-2.7-1.2-2.7-2.7v-31.2h482v31.2c0,1.5-1.2,2.7-2.7,2.7h-66.9
		c-4.1,0-7.5,3.4-7.5,7.5c0,4.1,3.4,7.5,7.5,7.5h66.9c9.8,0,17.7-7.9,17.7-17.7V194.1c0-4.1-3.4-7.5-7.5-7.5c-4.1,0-7.5,3.4-7.5,7.5
		v198.6h-72.7V109.1h64.9c4.3,0,7.8,3.5,7.8,7.8v44.6C497,165.6,500.4,169,504.5,169L504.5,169z M297.5,493h-83.1v-36.3h83.1V493z
		 M102.7,145.5h87.6l23.8,20.8l-6.9,10.8c-8.4-8.6-19.9-13.6-32.3-13.6c-1.8,0-3.6,0.1-5.4,0.3c-4.7-5.1-11.4-8.3-18.9-8.3
		c-14.2,0-25.7,11.5-25.7,25.8c0,6.4,2.3,12.2,6.2,16.7c-0.8,3.5-1.3,7-1.3,10.6c0,19.3,12.4,36.2,30,42.5L132.8,293h-30.1
		L102.7,145.5L102.7,145.5z M284.5,207.7l-50.7-44.2l11.5-18h39.2V207.7z M222.3,153.6l-9.2-8h14.3L222.3,153.6z M168.1,238
		c-13.5-3.1-23.4-15.2-23.4-29.3c0-0.7,0-1.5,0.1-2.2c1.9,0.4,3.8,0.7,5.8,0.7c14.2,0,25.7-11.6,25.7-25.7c0-0.9-0.1-1.9-0.1-2.8
		c9,0.4,17.1,4.7,22.5,11.7L168.1,238z M161.4,181.3c0,5.9-4.8,10.7-10.8,10.7c-5.9,0-10.7-4.8-10.7-10.7c0-5.9,4.8-10.8,10.7-10.8
		C156.6,170.6,161.4,175.4,161.4,181.3L161.4,181.3z M225.6,176.3l58.9,51.4V293H150.6L225.6,176.3z M299.5,145.5h109.8V293H299.5
		V145.5z M105.2,74.5h301.6c1.4,0,2.5,1.1,2.5,2.5v53.5H102.7V77C102.7,75.7,103.8,74.5,105.2,74.5L105.2,74.5z M176,392.7h-36.9
		v-44.6H176V392.7z M274.4,392.7h-36.9v-44.6h36.9V392.7z M372.9,392.7H336v-44.6h36.9V392.7z M387.9,392.7v-52.1
		c0-4.1-3.4-7.5-7.5-7.5h-51.9c-4.1,0-7.5,3.4-7.5,7.5v52.1h-31.5v-52.1c0-4.1-3.4-7.5-7.5-7.5h-51.9c-4.1,0-7.5,3.4-7.5,7.5v52.1
		H191v-52.1c0-4.1-3.4-7.5-7.5-7.5h-51.9c-4.1,0-7.5,3.4-7.5,7.5v52.1h-21.4V308h306.6v84.7H387.9z M387.9,392.7"/>
	<path class="st1" d="M130,120.5h38.5c4.1,0,7.5-3.4,7.5-7.5c0-4.1-3.4-7.5-7.5-7.5H130c-4.1,0-7.5,3.4-7.5,7.5
		C122.5,117.2,125.9,120.5,130,120.5L130,120.5z M130,120.5"/>
	<path class="st1" d="M274.7,120.5c4.1,0,7.5-3.4,7.5-7.5c0-4.1-3.4-7.5-7.5-7.5h-0.1c-4.1,0-7.5,3.4-7.5,7.5
		C267.2,117.2,270.6,120.5,274.7,120.5L274.7,120.5z M274.7,120.5"/>
	<path class="st1" d="M300.8,120.5c4.1,0,7.5-3.4,7.5-7.5c0-4.1-3.4-7.5-7.5-7.5h-0.1c-4.1,0-7.5,3.4-7.5,7.5
		C293.3,117.2,296.7,120.5,300.8,120.5L300.8,120.5z M300.8,120.5"/>
	<path class="st1" d="M326.9,120.5c4.1,0,7.5-3.4,7.5-7.5c0-4.1-3.4-7.5-7.5-7.5h-0.1c-4.1,0-7.5,3.4-7.5,7.5
		C319.3,117.2,322.7,120.5,326.9,120.5L326.9,120.5z M326.9,120.5"/>
	<path class="st1" d="M352.9,120.5c4.1,0,7.5-3.4,7.5-7.5c0-4.1-3.4-7.5-7.5-7.5h-0.1c-4.1,0-7.5,3.4-7.5,7.5
		C345.4,117.2,348.8,120.5,352.9,120.5L352.9,120.5z M352.9,120.5"/>
	<path class="st1" d="M379,120.5c4.1,0,7.5-3.4,7.5-7.5c0-4.1-3.4-7.5-7.5-7.5h-0.1c-4.1,0-7.5,3.4-7.5,7.5C371.5,117.2,374.9,120.5,379,120.5
		L379,120.5z M379,120.5"/>
	<path class="st1" d="M362.8,241.7h-34.4c-9.1,0-16.5,7.4-16.5,16.5c0,9.1,7.4,16.5,16.5,16.5h34.4c9.1,0,16.5-7.4,16.5-16.5
		C379.3,249.1,371.9,241.7,362.8,241.7L362.8,241.7z M362.8,259.7h-34.4c-0.8,0-1.5-0.7-1.5-1.5c0-0.8,0.7-1.5,1.5-1.5h34.4
		c0.8,0,1.5,0.7,1.5,1.5C364.3,259.1,363.6,259.7,362.8,259.7L362.8,259.7z M362.8,259.7"/>
	<path class="st1" d="M319.4,191.2c4.1,0,7.5-3.4,7.5-7.5v-3.1c0-4.1-3.4-7.5-7.5-7.5c-4.1,0-7.5,3.4-7.5,7.5v3.1
		C311.9,187.9,315.3,191.2,319.4,191.2L319.4,191.2z M319.4,191.2"/>
	<path class="st1" d="M336.1,191.2c4.1,0,7.5-3.4,7.5-7.5v-3.1c0-4.1-3.4-7.5-7.5-7.5c-4.1,0-7.5,3.4-7.5,7.5v3.1
		C328.6,187.9,331.9,191.2,336.1,191.2L336.1,191.2z M336.1,191.2"/>
	<path class="st1" d="M319.4,214h34.9c4.1,0,7.5-3.4,7.5-7.5c0-4.1-3.4-7.5-7.5-7.5h-34.9c-4.1,0-7.5,3.4-7.5,7.5
		C311.9,210.7,315.3,214,319.4,214L319.4,214z M319.4,214"/>
	<path class="st1" d="M384.1,217h-64.6c-4.1,0-7.5,3.4-7.5,7.5c0,4.1,3.4,7.5,7.5,7.5h64.6c4.1,0,7.5-3.4,7.5-7.5
		C391.6,220.4,388.2,217,384.1,217L384.1,217z M384.1,217"/>
	<path class="st1" d="M196.9,247.8c0,0-0.1,0-0.1,0c-4.1,0.1-7.4,3.5-7.4,7.6c0.1,4.1,3.4,7.4,7.5,7.4c0,0,0.1,0,0.1,0c4.1-0.1,7.4-3.5,7.4-7.6
		v-0.1C204.3,251.1,201,247.8,196.9,247.8L196.9,247.8z M196.9,247.8"/>
	<path class="st1" d="M196.9,265.9c-4.1,0-7.5,3.4-7.5,7.5c0,4.1,3.4,7.5,7.5,7.5c4.1,0,7.5-3.4,7.5-7.5v-0.1C204.4,269.2,201,265.9,196.9,265.9
		L196.9,265.9z M196.9,265.9"/>
	<path class="st1" d="M215.4,247.8c-4.1,0-7.5,3.4-7.5,7.5c0,4.1,3.4,7.5,7.5,7.5c4.1,0,7.5-3.4,7.5-7.5v-0.1
		C222.9,251.1,219.6,247.8,215.4,247.8L215.4,247.8z M215.4,247.8"/>
	<path class="st1" d="M215.4,265.9c-4.1,0-7.5,3.4-7.5,7.5c0,4.1,3.4,7.5,7.5,7.5c4.1,0,7.5-3.4,7.5-7.5v-0.1
		C222.9,269.2,219.6,265.9,215.4,265.9L215.4,265.9z M215.4,265.9"/>
	<path class="st1" d="M234,247.8c-4.1,0-7.5,3.4-7.5,7.5c0,4.1,3.4,7.5,7.5,7.5c4.1,0,7.5-3.4,7.5-7.5v-0.1C241.5,251.1,238.1,247.8,234,247.8
		L234,247.8z M234,247.8"/>
	<path class="st1" d="M234,265.9c-4.1,0-7.5,3.4-7.5,7.5c0,4.1,3.4,7.5,7.5,7.5c4.1,0,7.5-3.4,7.5-7.5v-0.1C241.5,269.2,238.1,265.9,234,265.9
		L234,265.9z M234,265.9"/>
</g>
</svg>
